<svg width="284" height="283" viewBox="0 0 284 283" fill="none" xmlns="http://www.w3.org/2000/svg">
<path d="M152.432 0.0895212C180.346 2.09118 207.04 12.3255 229.138 29.4982C251.236 46.6709 267.745 70.0108 276.578 96.5663C285.411 123.122 286.171 151.7 278.762 178.688C271.353 205.675 256.108 229.86 234.954 248.183C213.8 266.506 187.688 278.145 159.919 281.627C132.151 285.11 103.973 280.28 78.9497 267.748C53.9262 255.217 33.1807 235.546 19.3366 211.224C5.49252 186.902 -0.828338 159.021 1.17333 131.107L48.8371 134.524C47.5115 153.012 51.6977 171.477 60.8665 187.585C70.0352 203.693 83.7747 216.721 100.348 225.021C116.92 233.32 135.582 236.519 153.973 234.212C172.364 231.906 189.657 224.198 203.667 212.063C217.677 199.927 227.774 183.91 232.681 166.037C237.588 148.163 237.085 129.236 231.234 111.649C225.384 94.0614 214.45 78.6037 199.815 67.2304C185.18 55.8571 167.501 49.079 149.014 47.7533L152.432 0.0895212Z" fill="#07004D"/>
</svg>
