<svg width="49" height="49" viewBox="0 0 49 49" fill="none" xmlns="http://www.w3.org/2000/svg">
<rect x="0.416016" y="0.620117" width="48" height="48" rx="24" fill="white" fill-opacity="0.2"/>
<path d="M24.416 25.3701C26.0729 25.3701 27.416 24.027 27.416 22.3701C27.416 20.7133 26.0729 19.3701 24.416 19.3701C22.7592 19.3701 21.416 20.7133 21.416 22.3701C21.416 24.027 22.7592 25.3701 24.416 25.3701Z" stroke="white" stroke-width="2" stroke-linecap="round" stroke-linejoin="round"/>
<path d="M31.916 22.3701C31.916 29.1201 24.416 34.3701 24.416 34.3701C24.416 34.3701 16.916 29.1201 16.916 22.3701C16.916 20.381 17.7062 18.4733 19.1127 17.0668C20.5192 15.6603 22.4269 14.8701 24.416 14.8701C26.4051 14.8701 28.3128 15.6603 29.7193 17.0668C31.1258 18.4733 31.916 20.381 31.916 22.3701V22.3701Z" stroke="white" stroke-width="2" stroke-linecap="round" stroke-linejoin="round"/>
</svg>
