<svg width="49" height="49" viewBox="0 0 49 49" fill="none" xmlns="http://www.w3.org/2000/svg">
<rect x="0.416016" y="0.620117" width="48" height="48" rx="24" fill="white" fill-opacity="0.2"/>
<path d="M21.0857 24.3215C21.8636 25.912 23.1529 27.1954 24.7469 27.9661C24.8635 28.0214 24.9926 28.0453 25.1212 28.0356C25.2499 28.0259 25.3739 27.9828 25.4809 27.9106L27.828 26.3455C27.9318 26.2763 28.0512 26.2341 28.1754 26.2227C28.2997 26.2112 28.4248 26.231 28.5395 26.2801L32.9305 28.162C33.0796 28.2254 33.2041 28.3355 33.2853 28.4758C33.3664 28.6161 33.3998 28.7789 33.3803 28.9398C33.2415 30.0258 32.7116 31.024 31.8899 31.7474C31.0681 32.4709 30.0109 32.87 28.916 32.8701C25.5345 32.8701 22.2915 31.5268 19.9004 29.1357C17.5093 26.7446 16.166 23.5016 16.166 20.1201C16.1661 19.0253 16.5652 17.968 17.2887 17.1462C18.0121 16.3245 19.0103 15.7946 20.0963 15.6558C20.2572 15.6363 20.42 15.6697 20.5603 15.7508C20.7006 15.8319 20.8107 15.9565 20.8741 16.1056L22.7576 20.5004C22.8063 20.6141 22.8262 20.7381 22.8154 20.8613C22.8046 20.9845 22.7635 21.1031 22.6958 21.2066L21.1361 23.5897C21.0651 23.6969 21.0232 23.8207 21.0143 23.9489C21.0055 24.0772 21.0301 24.2056 21.0857 24.3215V24.3215Z" stroke="white" stroke-width="2" stroke-linecap="round" stroke-linejoin="round"/>
</svg>
