<svg width="49" height="48" viewBox="0 0 49 48" fill="none" xmlns="http://www.w3.org/2000/svg">
<rect x="0.128906" width="48" height="48" rx="24" fill="white" fill-opacity="0.2"/>
<path d="M31.6289 15.75H16.6289C16.2147 15.75 15.8789 16.0858 15.8789 16.5V31.5C15.8789 31.9142 16.2147 32.25 16.6289 32.25H31.6289C32.0431 32.25 32.3789 31.9142 32.3789 31.5V16.5C32.3789 16.0858 32.0431 15.75 31.6289 15.75Z" stroke="white" stroke-width="2" stroke-linecap="round" stroke-linejoin="round"/>
<path d="M23.3789 22.5V28.5" stroke="white" stroke-width="2" stroke-linecap="round" stroke-linejoin="round"/>
<path d="M20.3789 22.5V28.5" stroke="white" stroke-width="2" stroke-linecap="round" stroke-linejoin="round"/>
<path d="M23.3789 25.125C23.3789 24.4288 23.6555 23.7611 24.1478 23.2688C24.64 22.7766 25.3077 22.5 26.0039 22.5C26.7001 22.5 27.3678 22.7766 27.8601 23.2688C28.3523 23.7611 28.6289 24.4288 28.6289 25.125V28.5" stroke="white" stroke-width="2" stroke-linecap="round" stroke-linejoin="round"/>
<path d="M20.3789 20.625C21.0002 20.625 21.5039 20.1213 21.5039 19.5C21.5039 18.8787 21.0002 18.375 20.3789 18.375C19.7576 18.375 19.2539 18.8787 19.2539 19.5C19.2539 20.1213 19.7576 20.625 20.3789 20.625Z" fill="white"/>
</svg>
