<svg width="40" height="40" viewBox="0 0 40 40" fill="none" xmlns="http://www.w3.org/2000/svg">
<path fill-rule="evenodd" clip-rule="evenodd" d="M26.6654 14.9997C26.6654 16.7678 25.963 18.4635 24.7127 19.7137C23.4625 20.964 21.7668 21.6663 19.9987 21.6663C18.2306 21.6663 16.5349 20.964 15.2847 19.7137C14.0344 18.4635 13.332 16.7678 13.332 14.9997C13.332 13.2316 14.0344 11.5359 15.2847 10.2856C16.5349 9.03539 18.2306 8.33301 19.9987 8.33301C21.7668 8.33301 23.4625 9.03539 24.7127 10.2856C25.963 11.5359 26.6654 13.2316 26.6654 14.9997ZM23.332 14.9997C23.332 15.8837 22.9808 16.7316 22.3557 17.3567C21.7306 17.9818 20.8828 18.333 19.9987 18.333C19.1146 18.333 18.2668 17.9818 17.6417 17.3567C17.0166 16.7316 16.6654 15.8837 16.6654 14.9997C16.6654 14.1156 17.0166 13.2678 17.6417 12.6427C18.2668 12.0175 19.1146 11.6663 19.9987 11.6663C20.8828 11.6663 21.7306 12.0175 22.3557 12.6427C22.9808 13.2678 23.332 14.1156 23.332 14.9997Z" fill="#191919"/>
<path fill-rule="evenodd" clip-rule="evenodd" d="M19.9993 1.6665C9.87435 1.6665 1.66602 9.87484 1.66602 19.9998C1.66602 30.1248 9.87435 38.3332 19.9993 38.3332C30.1243 38.3332 38.3327 30.1248 38.3327 19.9998C38.3327 9.87484 30.1243 1.6665 19.9993 1.6665ZM4.99935 19.9998C4.99935 23.4832 6.18768 26.6898 8.17935 29.2365C9.57807 27.3997 11.3825 25.9111 13.4517 24.887C15.521 23.863 17.7989 23.3312 20.1077 23.3332C22.3866 23.331 24.6359 23.849 26.6842 24.8478C28.7326 25.8466 30.526 27.2997 31.9277 29.0965C33.3718 27.2025 34.3441 24.9919 34.7642 22.6475C35.1843 20.3031 35.0401 17.8924 34.3435 15.6148C33.6469 13.3372 32.418 11.2583 30.7585 9.5499C29.0989 7.84155 27.0564 6.55294 24.8 5.79069C22.5435 5.02843 20.138 4.81446 17.7824 5.16646C15.4269 5.51846 13.189 6.42632 11.254 7.81493C9.31893 9.20353 7.74237 11.033 6.65473 13.1518C5.56709 15.2707 4.99965 17.6181 4.99935 19.9998ZM19.9993 34.9998C16.5559 35.005 13.2165 33.8204 10.546 31.6465C11.6209 30.1077 13.0516 28.8514 14.7163 27.9843C16.3811 27.1173 18.2307 26.6652 20.1077 26.6665C21.9613 26.665 23.7885 27.1058 25.4376 27.9522C27.0866 28.7986 28.51 30.0263 29.5893 31.5332C26.8982 33.7777 23.5037 35.0048 19.9993 34.9998Z" fill="#191919"/>
</svg>
