<svg width="96" height="85" viewBox="0 0 96 85" fill="none" xmlns="http://www.w3.org/2000/svg">
<path d="M3.72681 76.2621H7.40681V78.0381H1.48681V66.8701H3.72681V76.2621ZM8.25456 73.5741C8.25456 72.6781 8.43056 71.8834 8.78256 71.1901C9.14523 70.4968 9.63056 69.9634 10.2386 69.5901C10.8572 69.2168 11.5452 69.0301 12.3026 69.0301C12.9639 69.0301 13.5399 69.1634 14.0306 69.4301C14.5319 69.6968 14.9319 70.0328 15.2306 70.4381V69.1741H17.4866V78.0381H15.2306V76.7421C14.9426 77.1581 14.5426 77.5048 14.0306 77.7821C13.5292 78.0488 12.9479 78.1821 12.2866 78.1821C11.5399 78.1821 10.8572 77.9901 10.2386 77.6061C9.63056 77.2221 9.14523 76.6834 8.78256 75.9901C8.43056 75.2861 8.25456 74.4808 8.25456 73.5741ZM15.2306 73.6061C15.2306 73.0621 15.1239 72.5981 14.9106 72.2141C14.6972 71.8194 14.4092 71.5208 14.0466 71.3181C13.6839 71.1048 13.2946 70.9981 12.8786 70.9981C12.4626 70.9981 12.0786 71.0994 11.7266 71.3021C11.3746 71.5048 11.0866 71.8034 10.8626 72.1981C10.6492 72.5821 10.5426 73.0408 10.5426 73.5741C10.5426 74.1074 10.6492 74.5768 10.8626 74.9821C11.0866 75.3768 11.3746 75.6808 11.7266 75.8941C12.0892 76.1074 12.4732 76.2141 12.8786 76.2141C13.2946 76.2141 13.6839 76.1128 14.0466 75.9101C14.4092 75.6968 14.6972 75.3981 14.9106 75.0141C15.1239 74.6194 15.2306 74.1501 15.2306 73.6061ZM24.5863 69.0461C25.6423 69.0461 26.4956 69.3821 27.1463 70.0541C27.797 70.7154 28.1223 71.6434 28.1223 72.8381V78.0381H25.8823V73.1421C25.8823 72.4381 25.7063 71.8994 25.3543 71.5261C25.0023 71.1421 24.5223 70.9501 23.9143 70.9501C23.2956 70.9501 22.805 71.1421 22.4423 71.5261C22.0903 71.8994 21.9143 72.4381 21.9143 73.1421V78.0381H19.6743V69.1741H21.9143V70.2781C22.213 69.8941 22.5916 69.5954 23.0503 69.3821C23.5196 69.1581 24.0316 69.0461 24.5863 69.0461ZM33.7244 69.0301C34.3858 69.0301 34.9671 69.1634 35.4684 69.4301C35.9698 69.6861 36.3644 70.0221 36.6524 70.4381V69.1741H38.9084V78.1021C38.9084 78.9234 38.7431 79.6541 38.4124 80.2941C38.0818 80.9448 37.5858 81.4568 36.9244 81.8301C36.2631 82.2141 35.4631 82.4061 34.5244 82.4061C33.2658 82.4061 32.2311 82.1128 31.4204 81.5261C30.6204 80.9394 30.1671 80.1394 30.0604 79.1261H32.2844C32.4018 79.5314 32.6524 79.8514 33.0364 80.0861C33.4311 80.3314 33.9058 80.4541 34.4604 80.4541C35.1111 80.4541 35.6391 80.2568 36.0444 79.8621C36.4498 79.4781 36.6524 78.8914 36.6524 78.1021V76.7261C36.3644 77.1421 35.9644 77.4888 35.4524 77.7661C34.9511 78.0434 34.3751 78.1821 33.7244 78.1821C32.9778 78.1821 32.2951 77.9901 31.6764 77.6061C31.0578 77.2221 30.5671 76.6834 30.2044 75.9901C29.8524 75.2861 29.6764 74.4808 29.6764 73.5741C29.6764 72.6781 29.8524 71.8834 30.2044 71.1901C30.5671 70.4968 31.0524 69.9634 31.6604 69.5901C32.2791 69.2168 32.9671 69.0301 33.7244 69.0301ZM36.6524 73.6061C36.6524 73.0621 36.5458 72.5981 36.3324 72.2141C36.1191 71.8194 35.8311 71.5208 35.4684 71.3181C35.1058 71.1048 34.7164 70.9981 34.3004 70.9981C33.8844 70.9981 33.5004 71.0994 33.1484 71.3021C32.7964 71.5048 32.5084 71.8034 32.2844 72.1981C32.0711 72.5821 31.9644 73.0408 31.9644 73.5741C31.9644 74.1074 32.0711 74.5768 32.2844 74.9821C32.5084 75.3768 32.7964 75.6808 33.1484 75.8941C33.5111 76.1074 33.8951 76.2141 34.3004 76.2141C34.7164 76.2141 35.1058 76.1128 35.4684 75.9101C35.8311 75.6968 36.1191 75.3981 36.3324 75.0141C36.5458 74.6194 36.6524 74.1501 36.6524 73.6061ZM48.7647 78.1501C47.986 78.1501 47.282 78.0168 46.6527 77.7501C46.034 77.4834 45.5434 77.0994 45.1807 76.5981C44.818 76.0968 44.6314 75.5048 44.6207 74.8221H47.0207C47.0527 75.2808 47.2127 75.6434 47.5007 75.9101C47.7994 76.1768 48.2047 76.3101 48.7167 76.3101C49.2394 76.3101 49.65 76.1874 49.9487 75.9421C50.2474 75.6861 50.3967 75.3554 50.3967 74.9501C50.3967 74.6194 50.2954 74.3474 50.0927 74.1341C49.89 73.9208 49.634 73.7554 49.3247 73.6381C49.026 73.5101 48.61 73.3714 48.0767 73.2221C47.3514 73.0088 46.7594 72.8008 46.3007 72.5981C45.8527 72.3848 45.4634 72.0701 45.1327 71.6541C44.8127 71.2274 44.6527 70.6621 44.6527 69.9581C44.6527 69.2968 44.818 68.7208 45.1487 68.2301C45.4794 67.7394 45.9434 67.3661 46.5407 67.1101C47.138 66.8434 47.8207 66.7101 48.5887 66.7101C49.7407 66.7101 50.674 66.9928 51.3887 67.5581C52.114 68.1128 52.514 68.8914 52.5887 69.8941H50.1247C50.1034 69.5101 49.938 69.1954 49.6287 68.9501C49.33 68.6941 48.93 68.5661 48.4287 68.5661C47.9914 68.5661 47.6394 68.6781 47.3727 68.9021C47.1167 69.1261 46.9887 69.4514 46.9887 69.8781C46.9887 70.1768 47.0847 70.4274 47.2767 70.6301C47.4794 70.8221 47.7247 70.9821 48.0127 71.1101C48.3114 71.2274 48.7274 71.3661 49.2607 71.5261C49.986 71.7394 50.578 71.9528 51.0367 72.1661C51.4954 72.3794 51.89 72.6994 52.2207 73.1261C52.5514 73.5528 52.7167 74.1128 52.7167 74.8061C52.7167 75.4034 52.562 75.9581 52.2527 76.4701C51.9434 76.9821 51.49 77.3928 50.8927 77.7021C50.2954 78.0008 49.586 78.1501 48.7647 78.1501ZM56.8987 70.4541C57.1867 70.0488 57.5814 69.7128 58.0827 69.4461C58.5947 69.1688 59.176 69.0301 59.8267 69.0301C60.584 69.0301 61.2667 69.2168 61.8747 69.5901C62.4934 69.9634 62.9787 70.4968 63.3307 71.1901C63.6934 71.8728 63.8747 72.6674 63.8747 73.5741C63.8747 74.4808 63.6934 75.2861 63.3307 75.9901C62.9787 76.6834 62.4934 77.2221 61.8747 77.6061C61.2667 77.9901 60.584 78.1821 59.8267 78.1821C59.176 78.1821 58.6 78.0488 58.0987 77.7821C57.608 77.5154 57.208 77.1794 56.8987 76.7741V82.2621H54.6587V69.1741H56.8987V70.4541ZM61.5867 73.5741C61.5867 73.0408 61.4747 72.5821 61.2507 72.1981C61.0374 71.8034 60.7494 71.5048 60.3867 71.3021C60.0347 71.0994 59.6507 70.9981 59.2347 70.9981C58.8294 70.9981 58.4454 71.1048 58.0827 71.3181C57.7307 71.5208 57.4427 71.8194 57.2187 72.2141C57.0054 72.6088 56.8987 73.0728 56.8987 73.6061C56.8987 74.1394 57.0054 74.6034 57.2187 74.9981C57.4427 75.3928 57.7307 75.6968 58.0827 75.9101C58.4454 76.1128 58.8294 76.2141 59.2347 76.2141C59.6507 76.2141 60.0347 76.1074 60.3867 75.8941C60.7494 75.6808 61.0374 75.3768 61.2507 74.9821C61.4747 74.5874 61.5867 74.1181 61.5867 73.5741ZM64.9264 73.5741C64.9264 72.6781 65.1024 71.8834 65.4544 71.1901C65.8171 70.4968 66.3024 69.9634 66.9104 69.5901C67.5291 69.2168 68.2171 69.0301 68.9744 69.0301C69.6358 69.0301 70.2118 69.1634 70.7024 69.4301C71.2038 69.6968 71.6038 70.0328 71.9024 70.4381V69.1741H74.1584V78.0381H71.9024V76.7421C71.6144 77.1581 71.2144 77.5048 70.7024 77.7821C70.2011 78.0488 69.6198 78.1821 68.9584 78.1821C68.2118 78.1821 67.5291 77.9901 66.9104 77.6061C66.3024 77.2221 65.8171 76.6834 65.4544 75.9901C65.1024 75.2861 64.9264 74.4808 64.9264 73.5741ZM71.9024 73.6061C71.9024 73.0621 71.7958 72.5981 71.5824 72.2141C71.3691 71.8194 71.0811 71.5208 70.7184 71.3181C70.3558 71.1048 69.9664 70.9981 69.5504 70.9981C69.1344 70.9981 68.7504 71.0994 68.3984 71.3021C68.0464 71.5048 67.7584 71.8034 67.5344 72.1981C67.3211 72.5821 67.2144 73.0408 67.2144 73.5741C67.2144 74.1074 67.3211 74.5768 67.5344 74.9821C67.7584 75.3768 68.0464 75.6808 68.3984 75.8941C68.7611 76.1074 69.1451 76.2141 69.5504 76.2141C69.9664 76.2141 70.3558 76.1128 70.7184 75.9101C71.0811 75.6968 71.3691 75.3981 71.5824 75.0141C71.7958 74.6194 71.9024 74.1501 71.9024 73.6061ZM75.7702 73.6061C75.7702 72.6888 75.9569 71.8888 76.3302 71.2061C76.7035 70.5128 77.2209 69.9794 77.8822 69.6061C78.5435 69.2221 79.3009 69.0301 80.1542 69.0301C81.2529 69.0301 82.1595 69.3074 82.8742 69.8621C83.5995 70.4061 84.0849 71.1741 84.3302 72.1661H81.9142C81.7862 71.7821 81.5675 71.4834 81.2582 71.2701C80.9595 71.0461 80.5862 70.9341 80.1382 70.9341C79.4982 70.9341 78.9915 71.1688 78.6182 71.6381C78.2449 72.0968 78.0582 72.7528 78.0582 73.6061C78.0582 74.4488 78.2449 75.1048 78.6182 75.5741C78.9915 76.0328 79.4982 76.2621 80.1382 76.2621C81.0449 76.2621 81.6369 75.8568 81.9142 75.0461H84.3302C84.0849 76.0061 83.5995 76.7688 82.8742 77.3341C82.1489 77.8994 81.2422 78.1821 80.1542 78.1821C79.3009 78.1821 78.5435 77.9954 77.8822 77.6221C77.2209 77.2381 76.7035 76.7048 76.3302 76.0221C75.9569 75.3288 75.7702 74.5234 75.7702 73.6061ZM94.2112 73.4141C94.2112 73.7341 94.1899 74.0221 94.1472 74.2781H87.6672C87.7205 74.9181 87.9445 75.4194 88.3392 75.7821C88.7339 76.1448 89.2192 76.3261 89.7952 76.3261C90.6272 76.3261 91.2192 75.9688 91.5712 75.2541H93.9872C93.7312 76.1074 93.2405 76.8114 92.5152 77.3661C91.7899 77.9101 90.8992 78.1821 89.8432 78.1821C88.9899 78.1821 88.2219 77.9954 87.5392 77.6221C86.8672 77.2381 86.3392 76.6994 85.9552 76.0061C85.5819 75.3128 85.3952 74.5128 85.3952 73.6061C85.3952 72.6888 85.5819 71.8834 85.9552 71.1901C86.3285 70.4968 86.8512 69.9634 87.5232 69.5901C88.1952 69.2168 88.9685 69.0301 89.8432 69.0301C90.6859 69.0301 91.4379 69.2114 92.0992 69.5741C92.7712 69.9368 93.2885 70.4541 93.6512 71.1261C94.0245 71.7874 94.2112 72.5501 94.2112 73.4141ZM91.8912 72.7741C91.8805 72.1981 91.6725 71.7394 91.2672 71.3981C90.8619 71.0461 90.3659 70.8701 89.7792 70.8701C89.2245 70.8701 88.7552 71.0408 88.3712 71.3821C87.9979 71.7128 87.7685 72.1768 87.6832 72.7741H91.8912Z" fill="white"/>
<path d="M61.7152 11.2141C62.1837 10.7075 63.3095 11.6904 66.4106 12.2184C67.6666 12.432 68.4716 12.5693 69.5705 12.4486C71.6744 12.2176 72.693 11.2792 73.1122 11.7143C73.5139 12.1319 72.6541 13.1553 72.2595 14.9615C72.219 15.1449 72.1952 15.2886 72.1857 15.4331C72.1603 15.811 72.1706 16.096 72.1777 16.1952C72.2349 16.982 72.1706 17.4631 72.2857 18.9256C72.4524 21.0438 72.6938 21.3979 72.7422 22.4935C72.7867 23.5106 72.6565 24.9651 71.8292 26.7752C71.7879 26.1552 71.7109 25.5327 71.5529 25.5168C71.2822 25.4906 70.9408 27.1635 70.8026 27.1373C70.5843 27.0952 72.0293 23.1811 70.4589 21.066C69.3251 19.5385 67.0013 19.5282 65.7993 19.5194C63.7692 19.5052 62.5235 20.1141 60.3211 20.9469C55.7845 22.6618 51.9451 23.528 51.876 23.3256C51.8141 23.1446 54.6683 21.8528 59.1802 19.2813C61.5549 17.9284 62.4306 17.329 62.7426 16.2246C63.3642 14.0254 61.0571 11.9262 61.7152 11.2141Z" fill="white"/>
<path d="M62.3261 11.8246C62.4118 11.7388 62.1244 11.9508 62.2642 11.8722C62.3071 11.8484 62.0371 11.9556 62.1784 11.9174C62.2054 11.9103 61.9275 11.9492 62.1094 11.9373C62.2705 11.927 62.0609 11.9246 62.0697 11.9302C62.2705 12.0484 62.6215 12.0842 62.8461 12.1604C63.7536 12.4692 64.6642 12.7519 65.6051 12.9432C66.769 13.1798 67.994 13.4148 69.1865 13.3442C70.2647 13.2806 71.2714 13.0012 72.2797 12.636C72.4234 12.5836 72.5671 12.5296 72.7148 12.4899C72.7791 12.4724 72.8434 12.4605 72.9077 12.4454C72.9148 12.4438 72.7116 12.4605 72.7989 12.4645C72.8712 12.4676 72.8775 12.4978 72.791 12.4573C72.5433 12.3414 72.421 12.3239 72.3527 11.9579C72.3734 12.0691 72.3329 12.0675 72.3678 11.9436C72.344 12.0302 72.3257 12.1167 72.2979 12.2017C71.9843 13.175 71.5127 14.0674 71.3643 15.0948C71.2468 15.907 71.3333 16.7597 71.3524 17.5782C71.3786 18.6873 71.4786 19.7981 71.6541 20.8937C71.7104 21.247 71.7739 21.5995 71.8351 21.952C71.843 21.9965 71.8549 22.1195 71.8311 21.9171C71.8359 21.9615 71.8422 22.006 71.847 22.0513C71.8549 22.1338 71.8629 22.2172 71.8684 22.2998C71.8827 22.5046 71.8891 22.711 71.8867 22.9166C71.8764 24.0821 71.5763 25.2429 71.084 26.3385C71.6207 26.4838 72.1566 26.6291 72.6933 26.7744C72.652 26.1948 72.6616 25.4056 72.2313 24.9539C71.7692 24.468 71.0578 24.6244 70.7069 25.1397C70.5203 25.4144 70.4139 25.7462 70.3083 26.0598C70.2528 26.2258 70.202 26.3925 70.1448 26.5576C70.1249 26.614 70.1027 26.6704 70.0837 26.7267C70.1154 26.6315 70.148 26.5695 70.2059 26.5235C70.333 26.4497 70.46 26.3758 70.587 26.3012C70.583 26.302 70.5783 26.3028 70.5743 26.3036C70.7958 26.333 71.0181 26.3615 71.2396 26.3909C71.196 26.3711 71.6668 27.3841 71.6453 27.0403C71.635 26.8816 71.6398 27.165 71.6287 27.1436C71.6048 27.0975 71.6684 26.9197 71.6779 26.8689C71.7295 26.6005 71.7843 26.333 71.8319 26.0638C71.9637 25.3191 72.0653 24.5617 72.0653 23.8043C72.0653 22.0687 71.4754 20.3316 69.8812 19.4471C68.5148 18.6889 66.8087 18.5921 65.2772 18.6659C63.1836 18.7675 61.2987 19.6798 59.3608 20.3856C57.5093 21.0596 55.6277 21.667 53.7159 22.1457C53.18 22.2799 52.6417 22.3863 52.0994 22.4903C52.4035 22.4323 52.1328 22.4768 52.0597 22.4887C51.9565 22.5054 51.8207 22.43 52.1518 22.5157C52.5718 22.6253 52.8656 23.5113 52.5091 23.89C52.5202 23.8789 52.5313 23.8686 52.5432 23.8583C52.3042 24.0814 52.4186 23.948 52.5075 23.8948C53.4348 23.3382 54.4121 22.8627 55.3673 22.3569C57.2068 21.3836 59.0487 20.3991 60.8287 19.3201C62.284 18.438 63.6282 17.4163 63.7123 15.5783C63.7576 14.5898 63.3924 13.6474 62.9835 12.7678C62.9049 12.5986 62.8231 12.4303 62.7421 12.262C62.7048 12.1842 62.6675 12.1064 62.631 12.0278C62.608 11.9786 62.5857 11.9286 62.5635 11.8785C62.5992 11.9651 62.5984 11.9635 62.5627 11.873C62.5167 11.7483 62.4841 11.6229 62.4484 11.4951C62.5063 11.6999 62.4666 11.5911 62.4619 11.5094C62.4357 11.657 62.4341 11.6872 62.4563 11.5983C62.4333 11.6888 62.3904 11.7626 62.3261 11.8246C62.6238 11.4665 62.677 10.9544 62.3261 10.6035C62.0196 10.297 61.4043 10.243 61.105 10.6035C60.5334 11.2918 60.7581 12.0484 61.0876 12.7884C61.4266 13.5498 61.7831 14.1492 61.9466 14.9709C62.0109 15.2925 62.0022 15.7006 61.8918 16.0586C61.8728 16.1205 61.8497 16.1809 61.8283 16.242C61.8775 16.1039 61.8537 16.1904 61.81 16.2674C61.7735 16.3325 61.7378 16.3984 61.6973 16.4611C61.66 16.5199 61.5496 16.6549 61.6568 16.527C61.1543 17.1273 60.6136 17.4329 59.9014 17.8624C57.9888 19.0152 56.0119 20.0672 54.0374 21.1081C53.4332 21.4264 52.8267 21.7392 52.2264 22.0648C51.9105 22.2362 51.5571 22.4077 51.2959 22.6602C50.6505 23.2842 51.2062 24.2147 52.0152 24.2179C52.5289 24.2195 53.0744 24.0702 53.5722 23.9559C55.6173 23.4883 57.6284 22.8412 59.6013 22.1299C61.6354 21.397 63.6266 20.3721 65.8345 20.3832C67.2485 20.3903 69.0817 20.4269 69.878 21.7472C70.618 22.9738 70.3457 24.6967 70.0837 26.0463C69.9781 26.5886 69.7304 27.2873 70.1821 27.7414C70.6219 28.182 71.3262 28.0074 71.616 27.4969C71.7716 27.223 71.8502 26.8911 71.9486 26.5942C71.9772 26.5076 72.0058 26.4211 72.0367 26.3345C72.0486 26.302 72.1265 26.1035 72.0844 26.2004C72.0367 26.3099 72.1328 26.1241 72.1328 26.1091C72.1328 26.1035 72.1733 26.0463 72.1717 26.0455C72.1916 26.0622 71.8581 26.3107 71.9645 26.2639C71.8192 26.3028 71.6739 26.3425 71.5286 26.3814C71.4723 26.375 71.4151 26.3687 71.3587 26.3623C71.2317 26.2885 71.1047 26.2147 70.9776 26.14C70.9086 26.067 70.8641 25.8058 70.8697 25.9979C70.8712 26.063 70.9046 26.1496 70.9149 26.2107C70.9451 26.3957 70.953 26.587 70.9665 26.7736C70.9935 27.1563 71.2158 27.5008 71.6001 27.6064C71.9407 27.7001 72.421 27.5532 72.575 27.2095C73.4642 25.2302 73.8088 23.208 73.4285 21.0692C73.2483 20.0553 73.1427 19.1153 73.0951 18.0482C73.0577 17.2154 72.9823 16.3309 73.0458 15.4997C73.1244 14.4715 73.7405 13.5283 74.0041 12.524C74.2399 11.6237 73.7477 10.6876 72.7291 10.74C72.344 10.7599 71.982 10.9107 71.6247 11.0409C71.1396 11.218 70.6489 11.3776 70.1432 11.4855C68.9658 11.7356 67.8122 11.5872 66.6412 11.3839C65.4495 11.1775 64.3133 10.8306 63.1693 10.4479C62.4825 10.2176 61.6822 10.0215 61.1058 10.6019C60.3206 11.3935 61.5409 12.6145 62.3261 11.8246Z" fill="white"/>
<path d="M37.2682 32.6037C36.7466 33.8367 35.4747 34.8339 26.7875 36.5409C23.6713 37.153 21.0656 37.569 19.2363 37.8374C20.509 36.9751 22.2755 35.7834 24.3961 34.3694C29.891 30.707 28.8842 31.4732 29.9648 30.7007C33.8583 27.9163 34.6149 26.7659 35.6708 27.1327C37.1055 27.6305 38.1209 30.5895 37.2682 32.6037Z" fill="white"/>
<path d="M36.2534 32.0108C36.1812 32.18 36.0883 32.3284 35.9946 32.4848C35.8668 32.6984 36.2106 32.2458 36.0653 32.3951C36.0327 32.4285 36.0041 32.4666 35.9724 32.4999C35.8954 32.5825 35.8104 32.6539 35.7279 32.7309C35.5198 32.9247 35.9756 32.565 35.7771 32.6944C35.7255 32.7278 35.6763 32.7659 35.6246 32.8C35.4968 32.8842 35.365 32.9612 35.2309 33.0334C35.0729 33.1184 34.9117 33.197 34.7481 33.2708C34.7069 33.2891 34.6656 33.3065 34.6251 33.3256C34.5004 33.3828 34.4996 33.3105 34.7243 33.2843C34.6179 33.297 34.4909 33.3788 34.3885 33.4177C33.219 33.8639 32.0011 34.1823 30.7864 34.4776C28.819 34.9556 26.831 35.3509 24.8406 35.7209C22.8748 36.0861 20.9019 36.414 18.9242 36.7054C19.2259 37.4215 19.5284 38.1376 19.8301 38.8538C23.1066 36.6339 26.3785 34.399 29.7225 32.2816C30.5077 31.7846 31.2516 31.2217 31.9932 30.6619C32.5069 30.2745 33.0158 29.8799 33.5223 29.4829C33.7009 29.3432 33.8796 29.2035 34.0582 29.0645C34.2964 28.8788 33.9097 29.1765 34.1352 29.005C34.221 28.9399 34.3067 28.8748 34.3932 28.8105C34.6243 28.6398 34.8593 28.4699 35.111 28.3294C35.1642 28.2992 35.2197 28.2738 35.2737 28.2444C35.477 28.1317 35.0744 28.2976 35.184 28.2817C35.2237 28.2762 35.2737 28.2547 35.311 28.242C35.5127 28.1722 35.3976 28.3302 35.1912 28.2484C35.2237 28.2611 35.2904 28.242 35.3277 28.2436C35.5556 28.2539 35.0165 28.1563 35.2023 28.2246C35.2475 28.2412 35.3095 28.2587 35.3571 28.2674C35.3087 28.2579 35.1332 28.1285 35.2785 28.2365C35.3134 28.2627 35.369 28.2952 35.4095 28.3127C35.5707 28.3786 35.4039 28.304 35.3619 28.2674C35.4135 28.3127 35.4651 28.3564 35.5143 28.404C35.577 28.4651 35.7977 28.7414 35.6429 28.527C35.8033 28.7486 35.9279 28.9828 36.0526 29.2249C36.1336 29.3821 35.9891 29.0542 36.0542 29.2225C36.0851 29.3027 36.1161 29.3829 36.1439 29.4647C36.1947 29.6147 36.2392 29.7664 36.2773 29.9196C36.3162 30.076 36.3455 30.234 36.3741 30.3928C36.3344 30.1713 36.3876 30.5357 36.3924 30.6183C36.4027 30.7802 36.4051 30.943 36.4003 31.1058C36.3987 31.1597 36.3964 31.2137 36.3932 31.2677C36.3916 31.2979 36.3455 31.6409 36.3884 31.382C36.336 31.6964 36.2526 31.9981 36.1328 32.2935C35.8938 32.8818 36.3924 33.5852 36.9537 33.7392C37.6262 33.9242 38.1597 33.509 38.3995 32.9183C38.8885 31.7131 38.8433 30.2705 38.4741 29.0391C38.139 27.9213 37.4825 26.7169 36.3971 26.1746C34.8045 25.3783 33.4548 26.5756 32.2584 27.5084C32.0591 27.664 31.8598 27.8204 31.6605 27.9761C31.6057 28.0189 31.5502 28.0618 31.4954 28.1047C31.4732 28.1213 31.2969 28.2587 31.3977 28.1801C31.5017 28.0991 31.312 28.246 31.2905 28.2619C31.2112 28.3222 31.1326 28.3833 31.0532 28.4437C30.4855 28.8764 29.9115 29.3003 29.3303 29.7148C29.1477 29.845 28.9651 29.9744 28.7769 30.0967C27.9814 30.6143 27.178 31.1208 26.3848 31.6425C23.7902 33.3494 21.2115 35.0818 18.64 36.8237C18.1572 37.1508 17.9143 37.7343 18.1588 38.2917C18.4129 38.8697 18.9472 39.0602 19.5458 38.9721C23.4123 38.4028 27.2764 37.7264 31.0794 36.8237C32.3639 36.5188 33.6525 36.1909 34.8911 35.7296C35.6389 35.4518 36.4011 35.1421 37.045 34.6618C37.5658 34.2736 38.0207 33.8036 38.2804 33.1978C38.5297 32.6142 38.4542 31.9378 37.8588 31.5893C37.3673 31.3003 36.5043 31.4241 36.2534 32.0108Z" fill="white"/>
<path d="M72.5357 24.5618C72.5357 37.503 62.4702 47.9933 50.053 47.9933C37.6358 47.9933 27.5703 37.503 27.5703 24.5618C27.5703 11.6207 37.6358 1.13037 50.053 1.13037C51.6782 1.13037 53.2637 1.31139 54.7912 1.65199C54.4189 1.63134 54.0433 1.62023 53.6646 1.62023C43.2426 1.62023 34.7935 9.60009 34.7935 19.4433C34.7935 29.2865 43.2434 37.2664 53.6646 37.2664C63.2538 37.2664 71.1741 30.51 72.3769 21.7624C72.4817 22.6794 72.5357 23.6154 72.5357 24.5618Z" fill="white"/>
<path d="M71.4294 24.5617C71.427 25.5041 71.3762 26.4449 71.2682 27.3818C71.2555 27.4929 71.242 27.6033 71.2277 27.7136C71.25 27.5405 71.2134 27.8097 71.2063 27.8597C71.1714 28.0971 71.1324 28.3337 71.0904 28.5695C71.007 29.0379 70.9094 29.5039 70.799 29.9668C70.5886 30.8449 70.3282 31.7119 70.0193 32.5606C69.9463 32.7623 69.8701 32.9631 69.7915 33.1632C69.7526 33.2632 69.7121 33.3625 69.6716 33.4617C69.651 33.5109 69.6311 33.561 69.6105 33.6102C69.6557 33.5014 69.6248 33.5768 69.5962 33.6411C69.4175 34.0476 69.2318 34.4502 69.0325 34.8471C68.6379 35.6339 68.1989 36.3985 67.7185 37.1368C67.4803 37.5036 67.231 37.8633 66.973 38.2158C66.9008 38.3143 66.8277 38.4119 66.7539 38.5096C66.7221 38.5516 66.6904 38.5929 66.6586 38.6342C66.6721 38.6167 66.7491 38.5183 66.6713 38.6167C66.5308 38.7938 66.3895 38.9708 66.2442 39.1447C65.6884 39.8108 65.0962 40.446 64.4689 41.0454C64.1569 41.3439 63.8354 41.6345 63.5067 41.9148C63.3487 42.0497 63.1899 42.1815 63.0279 42.3117C62.947 42.3768 62.866 42.4411 62.785 42.5054C62.6858 42.584 62.7874 42.5047 62.8041 42.4912C62.7493 42.5332 62.6945 42.5753 62.6389 42.6166C61.2432 43.667 59.726 44.5498 58.1254 45.2477C58.0778 45.2683 58.0301 45.289 57.9817 45.3096C58.0007 45.3017 58.1238 45.2509 58.0055 45.2985C57.9086 45.3374 57.8126 45.3771 57.7157 45.4152C57.5053 45.4986 57.2933 45.578 57.0806 45.6542C56.6693 45.8019 56.2541 45.9368 55.8349 46.0591C54.9885 46.306 54.1271 46.5013 53.257 46.6434C53.1514 46.6609 53.0458 46.6768 52.9402 46.6927C52.887 46.7006 52.8346 46.7078 52.7814 46.7157C52.8028 46.7125 52.941 46.695 52.81 46.7117C52.5789 46.7411 52.3471 46.7673 52.1153 46.7887C51.6651 46.8316 51.2142 46.8602 50.7624 46.8745C49.8367 46.9046 48.9086 46.8761 47.9868 46.7887C47.7725 46.7681 47.5589 46.7443 47.3453 46.7181C47.1333 46.6927 47.4255 46.7324 47.2151 46.7006C47.0921 46.6816 46.969 46.6633 46.8459 46.6434C46.4093 46.572 45.975 46.4878 45.5431 46.3902C44.6888 46.1965 43.8464 45.9503 43.0223 45.655C42.8254 45.5843 42.6301 45.5113 42.4356 45.4351C42.3388 45.397 42.2419 45.3573 42.145 45.3192C42.1371 45.316 41.9783 45.2509 42.0847 45.2953C42.1847 45.3374 41.995 45.2564 41.9775 45.2493C41.5647 45.0691 41.1566 44.8785 40.7556 44.6737C39.9855 44.2815 39.2392 43.8448 38.5199 43.3661C38.1611 43.1271 37.8086 42.877 37.464 42.6182C37.4219 42.5864 37.2226 42.4324 37.3592 42.5388C37.2774 42.4753 37.1964 42.411 37.1154 42.3459C36.9408 42.2053 36.7677 42.0616 36.597 41.9163C35.9388 41.3542 35.3124 40.7548 34.7217 40.1228C34.4137 39.7926 34.1152 39.4536 33.8262 39.1066C33.6928 38.9462 33.5626 38.7827 33.4324 38.6191C33.3538 38.5207 33.4316 38.6191 33.4451 38.6366C33.4133 38.5953 33.3816 38.5532 33.3498 38.5119C33.276 38.4143 33.2029 38.3166 33.1307 38.2182C32.6122 37.5116 32.1343 36.7756 31.6976 36.015C31.257 35.2465 30.8648 34.4541 30.5075 33.6435C30.4265 33.4593 30.5282 33.6999 30.4527 33.5141C30.4122 33.4149 30.3718 33.3156 30.3321 33.2164C30.2463 33.0004 30.1637 32.7829 30.0843 32.5638C29.9311 32.1406 29.789 31.7135 29.6596 31.2832C29.392 30.3932 29.1761 29.4873 29.0133 28.5727C28.9744 28.3551 28.9387 28.136 28.9061 27.9177C28.8982 27.8637 28.8625 27.6112 28.8712 27.6795C28.8863 27.7922 28.8625 27.6104 28.8625 27.6056C28.8537 27.5318 28.8442 27.458 28.8363 27.3841C28.7831 26.9189 28.7426 26.4528 28.7156 25.9852C28.6616 25.0388 28.6616 24.0893 28.7156 23.1429C28.7426 22.6753 28.7823 22.2093 28.8363 21.744C28.849 21.6329 28.8625 21.5225 28.8768 21.4121C28.8545 21.5852 28.8911 21.3161 28.8982 21.2661C28.9355 21.0104 28.9776 20.7556 29.0236 20.5015C29.1856 19.6051 29.3976 18.7175 29.6604 17.845C29.7898 17.4139 29.9319 16.9867 30.0851 16.5644C30.1582 16.3627 30.2344 16.1618 30.313 15.9618C30.3519 15.8617 30.3924 15.7625 30.4329 15.6632C30.4535 15.614 30.4734 15.564 30.494 15.5148C30.4488 15.6236 30.4797 15.5481 30.5083 15.4838C31.226 13.8531 32.1049 12.3025 33.1624 10.8671C33.2244 10.7829 33.2871 10.6988 33.3506 10.6154C33.3824 10.5733 33.4141 10.532 33.4459 10.4907C33.4324 10.5082 33.3554 10.6067 33.4332 10.5082C33.5737 10.3312 33.715 10.1541 33.8603 9.98025C34.1382 9.6468 34.4256 9.32128 34.7225 9.00371C35.3132 8.37094 35.9396 7.77152 36.5978 7.2102C36.7558 7.07523 36.9146 6.94344 37.0765 6.81324C37.1575 6.74813 37.2385 6.68382 37.3195 6.61951C37.4187 6.54092 37.3171 6.62031 37.3004 6.63381C37.3552 6.59173 37.41 6.54965 37.4656 6.50836C37.8101 6.24875 38.1627 5.99945 38.5215 5.76047C39.2551 5.2722 40.0173 4.82681 40.8033 4.42904C41.1899 4.23374 41.5821 4.05034 41.9791 3.87726C42.0267 3.85661 42.0744 3.83597 42.1228 3.81533C42.1038 3.82327 41.9807 3.87408 42.099 3.82645C42.1958 3.78754 42.2919 3.74785 42.3888 3.70974C42.5992 3.62637 42.8111 3.54698 43.0239 3.47076C43.848 3.17462 44.6904 2.9293 45.5447 2.73558C45.9766 2.63792 46.4109 2.55297 46.8475 2.48231C46.9531 2.46484 47.0587 2.44897 47.1643 2.43309C47.2175 2.42515 47.2699 2.418 47.3231 2.41006C47.3017 2.41324 47.1635 2.43071 47.2945 2.41403C47.5255 2.38466 47.7574 2.35846 47.9892 2.33702C49.0023 2.24095 50.0225 2.21634 51.0387 2.2616C52.2066 2.314 53.3562 2.4704 54.4979 2.72129C54.5955 1.99722 54.694 1.27315 54.7916 0.548282C48.7879 0.233883 42.7191 2.53392 38.6279 6.98393C34.6439 11.3172 32.8957 17.3003 34.0596 23.0866C35.1894 28.6997 39.1074 33.5284 44.1775 36.1055C49.7041 38.9145 56.3001 39.0891 61.9879 36.6494C67.3001 34.3708 71.5397 29.7143 73.0339 24.098C73.2126 23.4272 73.3475 22.7452 73.4444 22.0576C72.7203 21.96 71.9963 21.8615 71.2714 21.7639C71.3738 22.692 71.4262 23.6256 71.4294 24.5617C71.431 25.1595 71.9367 25.6676 72.5353 25.6676C73.134 25.6676 73.6437 25.1611 73.6413 24.5617C73.6381 23.6256 73.5857 22.692 73.4825 21.7615C73.4222 21.2145 73.1086 20.7444 72.5234 20.6754C72.0359 20.6174 71.3873 20.9167 71.3095 21.4677C71.1221 22.8007 70.7831 24.1083 70.2901 25.3612C70.2583 25.443 70.225 25.5239 70.1916 25.6049C70.1154 25.7907 70.2972 25.3723 70.1599 25.6788C70.0956 25.8225 70.0321 25.9662 69.9654 26.1083C69.824 26.4084 69.6748 26.7045 69.5168 26.9959C69.2008 27.5786 68.8523 28.1431 68.4728 28.6862C68.3727 28.8291 68.2711 28.9704 68.1671 29.1109C68.1258 29.1673 68.0837 29.2229 68.0409 29.2785C68.1552 29.1276 68.0178 29.3078 67.9885 29.3436C67.7804 29.6024 67.5685 29.858 67.3478 30.1065C66.9055 30.6051 66.4355 31.0791 65.9409 31.5261C65.6924 31.7508 65.4383 31.9691 65.1787 32.1803C65.1104 32.2359 65.0406 32.2907 64.9723 32.3462C64.9501 32.3645 64.8064 32.4733 64.9445 32.3685C64.8032 32.4756 64.6611 32.5812 64.5174 32.6845C63.9672 33.079 63.3963 33.445 62.8072 33.7785C61.533 34.501 60.558 34.9178 59.1797 35.3386C58.5049 35.5442 57.8197 35.7141 57.1266 35.8459C56.347 35.9944 55.9651 36.0444 55.1696 36.1039C54.4391 36.1587 53.7063 36.173 52.9751 36.1484C52.6155 36.1365 52.2558 36.1143 51.897 36.0825C51.7286 36.0674 51.5603 36.0507 51.392 36.0317C51.3174 36.023 51.2435 36.0142 51.1689 36.0055C50.9085 35.9745 51.2547 36.0222 51.0189 35.9848C49.643 35.7665 48.2957 35.4354 46.9896 34.9456C46.8213 34.8821 46.6546 34.8154 46.4879 34.7495C46.4609 34.7384 46.2926 34.6685 46.4545 34.7368C46.372 34.7018 46.2902 34.6661 46.2084 34.6296C45.8996 34.4922 45.5939 34.347 45.2922 34.1937C44.6944 33.8896 44.1116 33.5546 43.5495 33.1894C43.27 33.0084 42.9953 32.8194 42.7262 32.6241C42.3705 32.3653 42.4126 32.3978 42.0799 32.1255C41.5702 31.7071 41.082 31.2625 40.6199 30.7925C40.1594 30.3241 39.7291 29.8302 39.3178 29.3182C39.1106 29.0601 39.3885 29.4142 39.2694 29.2562C39.2178 29.188 39.1654 29.1189 39.1146 29.0498C39.0225 28.9252 38.9328 28.7989 38.8438 28.6719C38.6573 28.4035 38.4778 28.1304 38.3056 27.8526C37.9618 27.296 37.6498 26.7204 37.3703 26.1289C37.2965 25.9733 37.2266 25.8153 37.1567 25.6581C37.1432 25.6271 37.075 25.4628 37.1472 25.6367C37.1139 25.5565 37.0821 25.4771 37.0503 25.3969C36.9289 25.0912 36.8169 24.7816 36.7137 24.4696C36.5057 23.8408 36.335 23.1993 36.2016 22.5499C36.1349 22.222 36.0778 21.8917 36.0301 21.5606C36.0008 21.3582 36.0579 21.8242 36.0206 21.486C36.0127 21.4153 36.0039 21.3447 35.996 21.274C35.9769 21.0969 35.9603 20.9191 35.9468 20.7413C35.8944 20.0577 35.8841 19.3709 35.9142 18.6866C35.9293 18.3468 35.9547 18.0077 35.9896 17.6695C35.9992 17.5814 36.0095 17.4933 36.0198 17.4043C36.0238 17.3686 36.0484 17.1868 36.0214 17.3821C36.046 17.2075 36.073 17.0328 36.1032 16.8589C36.2159 16.2039 36.3676 15.5553 36.5565 14.9177C36.6502 14.6018 36.7534 14.2889 36.8654 13.9785C36.9186 13.8324 36.9733 13.6863 37.0297 13.5418C37.0551 13.4775 37.0813 13.414 37.1067 13.3497C37.202 13.1092 37.0599 13.4482 37.1559 13.2322C37.6887 12.0342 38.3357 10.8965 39.113 9.84052C39.1638 9.77144 39.2154 9.70237 39.2678 9.63409C39.3869 9.4761 39.109 9.83019 39.3162 9.57216C39.4131 9.45149 39.51 9.33001 39.61 9.21092C39.8196 8.95925 40.0363 8.71313 40.2602 8.47256C40.7088 7.99064 41.1828 7.53254 41.6798 7.10143C41.8108 6.98711 41.9442 6.87516 42.0783 6.76481C42.1323 6.72035 42.1863 6.67668 42.2403 6.63301C42.2236 6.64651 42.4928 6.43373 42.3753 6.52583C42.2578 6.61713 42.5301 6.40912 42.5134 6.42182C42.5698 6.37975 42.6254 6.33846 42.6817 6.29718C42.8231 6.19396 42.966 6.09234 43.1097 5.9931C43.6607 5.6136 44.2315 5.26268 44.8198 4.94351C45.1159 4.78235 45.4168 4.62912 45.7209 4.48382C45.8654 4.41475 46.0115 4.34727 46.1576 4.28217C46.2227 4.25279 46.2886 4.22421 46.3537 4.19563C46.5855 4.09321 46.2695 4.2258 46.4855 4.14084C47.1238 3.88758 47.7693 3.65734 48.429 3.466C49.0991 3.27228 49.7795 3.11508 50.4663 2.99361C50.6489 2.96106 50.8331 2.93327 51.0165 2.90469C51.0451 2.89992 51.2332 2.87372 51.0546 2.89833C51.1475 2.88563 51.2404 2.87452 51.3333 2.86419C51.6889 2.82291 52.0454 2.79115 52.4027 2.76892C53.1974 2.7197 53.993 2.72049 54.7885 2.76178C56.0254 2.82688 56.3041 0.857123 55.0822 0.588772C50.8791 -0.333782 46.4379 -0.109891 42.3832 1.35651C38.8796 2.62363 35.6991 4.71804 33.1553 7.44203C30.5544 10.2272 28.6219 13.6101 27.5247 17.2591C26.3735 21.0898 26.1774 25.1746 26.8689 29.1086C27.5199 32.8131 29.0427 36.3977 31.2808 39.4218C33.5062 42.4292 36.3795 44.9492 39.7299 46.6347C43.1533 48.3568 46.9825 49.2237 50.8164 49.0904C54.6019 48.9586 58.3302 47.8796 61.6004 45.9662C64.8214 44.0814 67.5589 41.4217 69.5986 38.3023C71.7303 35.0424 73.0188 31.3014 73.4722 27.4413C73.5841 26.487 73.6373 25.5271 73.6397 24.5657C73.6413 23.9678 73.13 23.4597 72.5337 23.4597C71.9343 23.4557 71.4302 23.9615 71.4294 24.5617Z" fill="white"/>
</svg>
