<svg width="438" height="110" viewBox="0 0 438 110" fill="none" xmlns="http://www.w3.org/2000/svg">
<path d="M82.6973 8.29688C85.6485 9.22629 88.6568 9.96385 91.7033 10.505C93.7121 10.9802 95.7729 11.2 97.8368 11.1592C101.926 10.8934 103.97 9.22713 104.737 10.0654C105.504 10.9036 103.889 12.2939 102.866 16.0251C102.063 19.4324 101.848 22.9521 102.233 26.4317C102.325 27.8833 102.468 29.0896 102.59 29.9483" fill="#4F2DF6"/>
<path d="M82.6973 8.29688C85.6485 9.22629 88.6568 9.96385 91.7033 10.505C93.7121 10.9802 95.7729 11.2 97.8368 11.1592C101.926 10.8934 103.97 9.22713 104.737 10.0654C105.504 10.9036 103.889 12.2939 102.866 16.0251C102.063 19.4324 101.848 22.9521 102.233 26.4317C102.325 27.8833 102.468 29.0896 102.59 29.9483" stroke="#4F2DF6" stroke-width="7.07253" stroke-miterlimit="10"/>
<path d="M83.118 8.47363C84.5472 11.3162 84.9758 14.5577 84.3345 17.6739C84.0891 18.6962 83.486 20.6487 79.6321 25.2284C74.6946 31.1166 70.8919 33.6007 71.2701 34.1834C71.8017 35.0114 80.1535 30.9735 83.5371 29.3481C86.9208 27.7227 88.4133 26.8231 89.9671 26.5778C90.3929 26.5089 90.8239 26.4781 91.2551 26.4858C92.1138 26.4858 94.833 26.6903 98.2473 29.9001C101.662 33.11 102.541 36.5244 103.123 36.3404C103.461 36.2381 103.573 34.9705 102.602 29.9615" fill="#4F2DF6"/>
<path d="M83.118 8.47363C84.5472 11.3162 84.9758 14.5577 84.3345 17.6739C84.0891 18.6962 83.486 20.6487 79.6321 25.2284C74.6946 31.1166 70.8919 33.6007 71.2701 34.1834C71.8017 35.0114 80.1535 30.9735 83.5371 29.3481C86.9208 27.7227 88.4133 26.8231 89.9671 26.5778C90.3929 26.5089 90.8239 26.4781 91.2551 26.4858C92.1138 26.4858 94.833 26.6903 98.2473 29.9001C101.662 33.11 102.541 36.5244 103.123 36.3404C103.461 36.2381 103.573 34.9705 102.602 29.9615" stroke="#4F2DF6" stroke-width="7.07253" stroke-miterlimit="10"/>
<path d="M107.345 54.3719C107.436 64.7471 104.447 74.9162 98.7577 83.5927C93.0681 92.2692 84.9331 99.0635 75.3817 103.116C65.8303 107.168 55.2915 108.297 45.0985 106.359C34.9055 104.421 25.5163 99.5039 18.1184 92.229C10.7205 84.9541 5.64639 75.6486 3.53787 65.4895C1.42936 55.3304 2.38119 44.7741 6.27295 35.1561C10.1647 25.538 16.8216 17.2902 25.4015 11.456C33.9813 5.62174 44.0988 2.46321 54.474 2.37991C58.1899 2.33483 61.9003 2.67744 65.545 3.40217C64.6761 3.40217 63.797 3.40217 62.9178 3.40217C38.5985 3.61684 19.0428 21.6495 19.237 43.6893C19.4312 65.7292 39.2936 83.404 63.613 83.1893C85.9799 82.9951 104.319 67.7124 106.956 48.1055C107.21 50.1847 107.34 52.2772 107.345 54.3719Z" fill="#4F2DF6"/>
<path d="M104.861 54.3724C104.707 87.79 71.9748 112.641 39.7227 102.418C7.73643 92.247 -5.10306 52.4505 14.5958 25.4016C26.0859 9.59749 45.8256 2.33947 64.8701 5.89692L65.5448 0.928752C38.3938 0.0598332 11.9072 22.1304 17.4989 50.9478C22.9987 79.4688 56.8659 92.3594 82.1462 82.0551C96.2533 76.2998 107.099 64.0225 109.44 48.7806L104.472 48.1059C104.707 50.1504 104.85 52.2767 104.902 54.3724C104.973 57.6231 110.013 57.6334 109.951 54.3724C109.9 52.3279 109.767 50.2016 109.522 48.1059C109.236 45.5605 105.034 44.3645 104.564 47.4415C99.3303 81.3191 53.5742 91.1838 31.3607 67.2426C26.2669 61.8349 23.0346 54.9409 22.1354 47.5665C21.2361 40.1922 22.717 32.7234 26.3619 26.2501C34.3048 12.4087 49.9964 5.48802 65.5448 5.9787C68.3356 6.07071 69.0511 1.55233 66.2093 1.02076C47.6247 -2.45492 28.4779 2.98349 15.2807 16.7533C9.33434 23.012 4.92832 30.5704 2.41216 38.8287C-0.104004 47.087 -0.661083 55.818 0.785119 64.3291C6.99019 100.957 49.1683 120.84 81.5431 102.96C90.159 98.1088 97.328 91.051 102.313 82.5119C107.299 73.9728 109.921 64.2603 109.911 54.3724C109.931 51.1114 104.871 51.1114 104.861 54.3724Z" fill="#4F2DF6"/>
<path d="M126.3 76C124.7 76 123.9 75.2 123.9 73.6V35.8C123.9 34.52 125.1 33.88 127.5 33.88H129.54C131.94 33.88 133.14 34.52 133.14 35.8V68.14H146.1C147.3 68.14 147.9 69.14 147.9 71.14V73C147.9 75 147.3 76 146.1 76H126.3ZM159.802 76.48C156.562 76.48 154.262 75.64 152.902 73.96C151.582 72.24 150.922 70.16 150.922 67.72C150.922 66.48 151.102 65.22 151.462 63.94C151.862 62.62 152.642 61.4 153.802 60.28C154.962 59.16 156.682 58.26 158.962 57.58C161.282 56.9 164.342 56.56 168.142 56.56V54.58C168.142 53.42 167.762 52.56 167.002 52C166.282 51.44 165.102 51.16 163.462 51.16C162.022 51.16 160.762 51.32 159.682 51.64C158.642 51.96 157.782 52.28 157.102 52.6C156.462 52.92 156.022 53.08 155.782 53.08C155.382 53.08 154.922 52.78 154.402 52.18C153.922 51.54 153.502 50.84 153.142 50.08C152.822 49.28 152.662 48.68 152.662 48.28C152.662 47.6 153.142 46.94 154.102 46.3C155.102 45.66 156.462 45.14 158.182 44.74C159.942 44.34 161.922 44.14 164.122 44.14C167.282 44.14 169.802 44.58 171.682 45.46C173.562 46.3 174.922 47.48 175.762 49C176.602 50.48 177.022 52.2 177.022 54.16V65.44C177.022 67.52 177.082 69.12 177.202 70.24C177.322 71.32 177.442 72.14 177.562 72.7C177.682 73.22 177.742 73.7 177.742 74.14C177.742 74.5 177.462 74.8 176.902 75.04C176.382 75.28 175.722 75.48 174.922 75.64C174.162 75.8 173.402 75.92 172.642 76C171.922 76.04 171.382 76.06 171.022 76.06C170.382 76.06 169.902 75.84 169.582 75.4C169.302 74.92 169.102 74.36 168.982 73.72C168.862 73.04 168.742 72.44 168.622 71.92C168.502 72.16 168.082 72.66 167.362 73.42C166.682 74.14 165.702 74.84 164.422 75.52C163.182 76.16 161.642 76.48 159.802 76.48ZM162.742 69.46C163.902 69.46 164.962 69.1 165.922 68.38C166.922 67.66 167.662 66.76 168.142 65.68V62.38C166.702 62.38 165.462 62.48 164.422 62.68C163.382 62.88 162.502 63.16 161.782 63.52C161.102 63.88 160.582 64.34 160.222 64.9C159.902 65.46 159.742 66.1 159.742 66.82C159.742 67.58 159.982 68.22 160.462 68.74C160.982 69.22 161.742 69.46 162.742 69.46ZM188.418 76.12C186.018 76.12 184.818 75.48 184.818 74.2V55.18C184.818 53.18 184.758 51.64 184.638 50.56C184.518 49.48 184.398 48.68 184.278 48.16C184.158 47.6 184.098 47.12 184.098 46.72C184.098 46.36 184.358 46.06 184.878 45.82C185.438 45.58 186.098 45.38 186.858 45.22C187.658 45.06 188.418 44.96 189.138 44.92C189.898 44.84 190.458 44.8 190.818 44.8C191.458 44.8 191.918 45.02 192.198 45.46C192.518 45.9 192.738 46.42 192.858 47.02C192.978 47.62 193.098 48.18 193.218 48.7C194.098 47.54 195.318 46.5 196.878 45.58C198.438 44.62 200.198 44.14 202.158 44.14C205.158 44.14 207.378 44.94 208.818 46.54C210.258 48.1 210.978 50.54 210.978 53.86V74.2C210.978 75.48 209.778 76.12 207.378 76.12H205.698C203.298 76.12 202.098 75.48 202.098 74.2V55.18C202.098 54.02 201.818 53.12 201.258 52.48C200.738 51.8 199.818 51.46 198.498 51.46C197.258 51.46 196.238 51.88 195.438 52.72C194.638 53.52 194.058 54.26 193.698 54.94V74.2C193.698 75.48 192.498 76.12 190.098 76.12H188.418ZM230.216 88.72C227.016 88.72 224.356 88.4 222.236 87.76C220.116 87.16 218.536 86.24 217.496 85C216.456 83.76 215.936 82.24 215.936 80.44C215.936 78.88 216.396 77.5 217.316 76.3C218.276 75.1 219.636 74.16 221.396 73.48L221.456 73.24C220.616 72.8 219.976 72.2 219.536 71.44C219.096 70.64 218.876 69.74 218.876 68.74C218.876 67.62 219.196 66.6 219.836 65.68C220.476 64.76 221.356 63.98 222.476 63.34C220.996 62.54 219.816 61.46 218.936 60.1C218.056 58.7 217.616 56.94 217.616 54.82C217.616 52.22 218.196 50.14 219.356 48.58C220.516 47.02 222.076 45.9 224.036 45.22C225.996 44.5 228.156 44.14 230.516 44.14C231.316 44.14 232.096 44.18 232.856 44.26C233.656 44.34 234.416 44.46 235.136 44.62H244.796C245.996 44.62 246.596 45.62 246.596 47.62V48.64C246.596 50.52 246.116 51.46 245.156 51.46C244.916 51.46 244.456 51.4 243.776 51.28C243.096 51.16 242.596 51.04 242.276 50.92L242.156 51.16C242.516 51.56 242.816 52.12 243.056 52.84C243.296 53.52 243.416 54.18 243.416 54.82C243.416 57.22 242.876 59.18 241.796 60.7C240.716 62.18 239.236 63.28 237.356 64C235.516 64.68 233.456 65.02 231.176 65.02C229.336 65.02 228.176 65.18 227.696 65.5C227.216 65.82 226.976 66.3 226.976 66.94C226.976 67.62 227.416 68.12 228.296 68.44C229.216 68.76 230.396 69 231.836 69.16C233.276 69.32 234.796 69.54 236.396 69.82C237.956 70.1 239.436 70.54 240.836 71.14C242.276 71.74 243.436 72.62 244.316 73.78C245.236 74.94 245.696 76.52 245.696 78.52C245.696 80.56 245.056 82.34 243.776 83.86C242.496 85.42 240.696 86.62 238.376 87.46C236.056 88.3 233.336 88.72 230.216 88.72ZM230.876 81.7C232.956 81.7 234.496 81.42 235.496 80.86C236.536 80.34 237.056 79.64 237.056 78.76C237.056 78.28 236.896 77.88 236.576 77.56C236.256 77.24 235.736 76.96 235.016 76.72C234.296 76.52 233.336 76.34 232.136 76.18C230.976 76.02 229.536 75.88 227.816 75.76C226.776 76.12 225.976 76.6 225.416 77.2C224.856 77.8 224.576 78.4 224.576 79C224.576 79.8 225.076 80.44 226.076 80.92C227.076 81.44 228.676 81.7 230.876 81.7ZM230.516 58.6C231.756 58.6 232.816 58.3 233.696 57.7C234.576 57.06 235.016 56.02 235.016 54.58C235.016 53.18 234.576 52.16 233.696 51.52C232.816 50.88 231.756 50.56 230.516 50.56C229.276 50.56 228.216 50.88 227.336 51.52C226.456 52.16 226.016 53.18 226.016 54.58C226.016 56.02 226.456 57.06 227.336 57.7C228.216 58.3 229.276 58.6 230.516 58.6ZM262.67 76.48C259.63 76.48 257.07 76.18 254.99 75.58C252.91 74.94 251.33 74.24 250.25 73.48C249.13 72.72 248.57 71.96 248.57 71.2C248.57 70.56 248.79 69.84 249.23 69.04C249.67 68.2 250.19 67.46 250.79 66.82C251.39 66.18 251.89 65.86 252.29 65.86C252.49 65.86 252.71 65.94 252.95 66.1C253.23 66.22 253.57 66.38 253.97 66.58C254.77 66.98 255.75 67.42 256.91 67.9C258.11 68.38 259.51 68.62 261.11 68.62C261.99 68.62 262.85 68.52 263.69 68.32C264.57 68.08 265.29 67.66 265.85 67.06C266.45 66.42 266.75 65.54 266.75 64.42C266.75 63.22 266.29 62.26 265.37 61.54C264.45 60.82 263.27 60.18 261.83 59.62C260.43 59.06 258.99 58.42 257.51 57.7C256.47 57.22 255.47 56.66 254.51 56.02C253.55 55.34 252.67 54.54 251.87 53.62C251.11 52.7 250.51 51.6 250.07 50.32C249.63 49 249.41 47.44 249.41 45.64C249.41 42.76 250.11 40.44 251.51 38.68C252.91 36.88 254.69 35.58 256.85 34.78C259.05 33.94 261.31 33.52 263.63 33.52C265.07 33.52 266.39 33.62 267.59 33.82C268.79 34.02 269.85 34.3 270.77 34.66C271.73 34.98 272.51 35.36 273.11 35.8C273.99 36.44 274.43 37.08 274.43 37.72C274.43 38.24 274.25 38.92 273.89 39.76C273.57 40.6 273.15 41.34 272.63 41.98C272.11 42.62 271.61 42.94 271.13 42.94C270.93 42.94 270.65 42.86 270.29 42.7C269.97 42.54 269.53 42.36 268.97 42.16C268.45 41.96 267.81 41.8 267.05 41.68C266.33 41.52 265.47 41.44 264.47 41.44C262.91 41.44 261.73 41.62 260.93 41.98C260.13 42.34 259.59 42.78 259.31 43.3C259.03 43.82 258.89 44.32 258.89 44.8C258.89 45.88 259.19 46.78 259.79 47.5C260.39 48.18 261.17 48.76 262.13 49.24C263.09 49.72 264.15 50.2 265.31 50.68C266.55 51.2 267.81 51.78 269.09 52.42C270.37 53.02 271.55 53.78 272.63 54.7C273.71 55.62 274.57 56.78 275.21 58.18C275.89 59.58 276.23 61.3 276.23 63.34C276.23 65.78 275.83 67.84 275.03 69.52C274.27 71.2 273.23 72.56 271.91 73.6C270.59 74.6 269.13 75.34 267.53 75.82C265.93 76.26 264.31 76.48 262.67 76.48ZM285.05 88.36C282.65 88.36 281.45 87.72 281.45 86.44V55.18C281.45 53.18 281.39 51.64 281.27 50.56C281.15 49.48 281.03 48.68 280.91 48.16C280.79 47.6 280.73 47.12 280.73 46.72C280.73 46.36 280.99 46.06 281.51 45.82C282.07 45.58 282.73 45.38 283.49 45.22C284.29 45.06 285.05 44.96 285.77 44.92C286.53 44.84 287.09 44.8 287.45 44.8C288.09 44.8 288.55 45.02 288.83 45.46C289.15 45.9 289.37 46.42 289.49 47.02C289.61 47.62 289.73 48.16 289.85 48.64C290.53 47.36 291.57 46.3 292.97 45.46C294.41 44.58 296.05 44.14 297.89 44.14C300.05 44.14 301.97 44.76 303.65 46C305.37 47.24 306.71 49.08 307.67 51.52C308.63 53.92 309.11 56.86 309.11 60.34C309.11 65.22 308.01 69.14 305.81 72.1C303.61 75.02 300.49 76.48 296.45 76.48C295.05 76.48 293.83 76.28 292.79 75.88C291.79 75.48 290.97 75.06 290.33 74.62V86.44C290.33 87.72 289.13 88.36 286.73 88.36H285.05ZM294.53 69.46C296.41 69.46 297.81 68.7 298.73 67.18C299.65 65.62 300.11 63.34 300.11 60.34C300.11 57.42 299.71 55.2 298.91 53.68C298.11 52.16 296.89 51.4 295.25 51.4C294.13 51.4 293.17 51.76 292.37 52.48C291.57 53.2 290.89 54.02 290.33 54.94V68.32C290.81 68.6 291.39 68.86 292.07 69.1C292.79 69.34 293.61 69.46 294.53 69.46ZM323.045 76.48C319.805 76.48 317.505 75.64 316.145 73.96C314.825 72.24 314.165 70.16 314.165 67.72C314.165 66.48 314.345 65.22 314.705 63.94C315.105 62.62 315.885 61.4 317.045 60.28C318.205 59.16 319.925 58.26 322.205 57.58C324.525 56.9 327.585 56.56 331.385 56.56V54.58C331.385 53.42 331.005 52.56 330.245 52C329.525 51.44 328.345 51.16 326.705 51.16C325.265 51.16 324.005 51.32 322.925 51.64C321.885 51.96 321.025 52.28 320.345 52.6C319.705 52.92 319.265 53.08 319.025 53.08C318.625 53.08 318.165 52.78 317.645 52.18C317.165 51.54 316.745 50.84 316.385 50.08C316.065 49.28 315.905 48.68 315.905 48.28C315.905 47.6 316.385 46.94 317.345 46.3C318.345 45.66 319.705 45.14 321.425 44.74C323.185 44.34 325.165 44.14 327.365 44.14C330.525 44.14 333.045 44.58 334.925 45.46C336.805 46.3 338.165 47.48 339.005 49C339.845 50.48 340.265 52.2 340.265 54.16V65.44C340.265 67.52 340.325 69.12 340.445 70.24C340.565 71.32 340.685 72.14 340.805 72.7C340.925 73.22 340.985 73.7 340.985 74.14C340.985 74.5 340.705 74.8 340.145 75.04C339.625 75.28 338.965 75.48 338.165 75.64C337.405 75.8 336.645 75.92 335.885 76C335.165 76.04 334.625 76.06 334.265 76.06C333.625 76.06 333.145 75.84 332.825 75.4C332.545 74.92 332.345 74.36 332.225 73.72C332.105 73.04 331.985 72.44 331.865 71.92C331.745 72.16 331.325 72.66 330.605 73.42C329.925 74.14 328.945 74.84 327.665 75.52C326.425 76.16 324.885 76.48 323.045 76.48ZM325.985 69.46C327.145 69.46 328.205 69.1 329.165 68.38C330.165 67.66 330.905 66.76 331.385 65.68V62.38C329.945 62.38 328.705 62.48 327.665 62.68C326.625 62.88 325.745 63.16 325.025 63.52C324.345 63.88 323.825 64.34 323.465 64.9C323.145 65.46 322.985 66.1 322.985 66.82C322.985 67.58 323.225 68.22 323.705 68.74C324.225 69.22 324.985 69.46 325.985 69.46ZM361.98 76.48C356.86 76.48 353.06 75.16 350.58 72.52C348.1 69.88 346.86 65.88 346.86 60.52C346.86 57.84 347.16 55.48 347.76 53.44C348.36 51.4 349.28 49.7 350.52 48.34C351.8 46.94 353.4 45.9 355.32 45.22C357.28 44.5 359.6 44.14 362.28 44.14C363.72 44.14 365.2 44.3 366.72 44.62C368.28 44.9 369.58 45.36 370.62 46C371.7 46.6 372.24 47.36 372.24 48.28C372.24 48.64 372.04 49.2 371.64 49.96C371.28 50.68 370.84 51.36 370.32 52C369.84 52.6 369.42 52.9 369.06 52.9C368.94 52.9 368.78 52.86 368.58 52.78C368.42 52.7 368.22 52.6 367.98 52.48C367.46 52.2 366.78 51.92 365.94 51.64C365.1 51.32 364.04 51.16 362.76 51.16C360.36 51.16 358.62 51.92 357.54 53.44C356.5 54.92 355.98 57.2 355.98 60.28C355.98 63.36 356.48 65.66 357.48 67.18C358.48 68.7 360.12 69.46 362.4 69.46C363.8 69.46 364.98 69.3 365.94 68.98C366.9 68.62 367.68 68.32 368.28 68.08C368.52 68 368.72 67.92 368.88 67.84C369.08 67.76 369.24 67.72 369.36 67.72C369.8 67.72 370.26 68.02 370.74 68.62C371.22 69.22 371.62 69.88 371.94 70.6C372.3 71.32 372.48 71.88 372.48 72.28C372.48 73.12 372.04 73.82 371.16 74.38C370.28 74.9 369.22 75.32 367.98 75.64C366.74 75.96 365.54 76.18 364.38 76.3C363.26 76.42 362.46 76.48 361.98 76.48ZM391.641 76.48C386.201 76.48 382.221 75.04 379.701 72.16C377.221 69.24 375.981 65.36 375.981 60.52C375.981 56.56 376.601 53.38 377.841 50.98C379.081 48.58 380.801 46.84 383.001 45.76C385.201 44.68 387.721 44.14 390.561 44.14C393.721 44.14 396.241 44.86 398.121 46.3C400.001 47.7 401.361 49.58 402.201 51.94C403.081 54.26 403.521 56.82 403.521 59.62C403.521 59.94 403.321 60.4 402.921 61C402.521 61.56 402.081 62.06 401.601 62.5C401.121 62.94 400.741 63.16 400.461 63.16H385.161C385.361 65.56 386.061 67.22 387.261 68.14C388.501 69.02 390.101 69.46 392.061 69.46C393.341 69.46 394.461 69.3 395.421 68.98C396.421 68.66 397.241 68.36 397.881 68.08C398.561 67.76 399.041 67.6 399.321 67.6C399.761 67.6 400.221 67.9 400.701 68.5C401.181 69.1 401.581 69.76 401.901 70.48C402.261 71.2 402.441 71.76 402.441 72.16C402.441 72.92 402.041 73.58 401.241 74.14C400.481 74.66 399.501 75.1 398.301 75.46C397.141 75.82 395.941 76.08 394.701 76.24C393.501 76.4 392.481 76.48 391.641 76.48ZM385.161 57.22H394.881C394.881 55.46 394.541 54.02 393.861 52.9C393.181 51.74 392.081 51.16 390.561 51.16C389.321 51.16 388.201 51.6 387.201 52.48C386.201 53.32 385.521 54.9 385.161 57.22Z" fill="white"/>
</svg>
