<svg width="68" height="68" viewBox="0 0 68 68" fill="none" xmlns="http://www.w3.org/2000/svg">
<path d="M51.1445 5.13135C52.9698 5.70614 54.8302 6.16229 56.7143 6.49694C57.9567 6.79085 59.2312 6.9268 60.5076 6.90155C63.0365 6.73718 64.3009 5.70667 64.7751 6.22508C65.2492 6.7435 64.2503 7.60331 63.6181 9.9109C63.1211 12.0181 62.9885 14.1949 63.2261 16.3469C63.283 17.2446 63.3715 17.9906 63.4474 18.5217" fill="#4F2DF6"/>
<path d="M51.1445 5.13135C52.9698 5.70614 54.8302 6.16229 56.7143 6.49694C57.9567 6.79085 59.2312 6.9268 60.5076 6.90155C63.0365 6.73718 64.3009 5.70667 64.7751 6.22508C65.2492 6.7435 64.2503 7.60331 63.6181 9.9109C63.1211 12.0181 62.9885 14.1949 63.2261 16.3469C63.283 17.2446 63.3715 17.9906 63.4474 18.5217" stroke="#4F2DF6" stroke-width="1.16448" stroke-miterlimit="10"/>
<path d="M51.404 5.24023C52.2878 6.9982 52.5529 9.00291 52.1563 10.9302C52.0046 11.5624 51.6316 12.7699 49.2481 15.6023C46.1945 19.2438 43.8427 20.7801 44.0766 21.1405C44.4053 21.6526 49.5705 19.1553 51.6632 18.1501C53.7558 17.1449 54.6788 16.5885 55.6398 16.4368C55.9031 16.3942 56.1697 16.3751 56.4364 16.3799C56.9674 16.3799 58.6491 16.5063 60.7607 18.4915C62.8723 20.4767 63.416 22.5883 63.7764 22.4745C63.985 22.4112 64.0546 21.6273 63.4539 18.5294" fill="#4F2DF6"/>
<path d="M51.404 5.24023C52.2878 6.9982 52.5529 9.00291 52.1563 10.9302C52.0046 11.5624 51.6316 12.7699 49.2481 15.6023C46.1945 19.2438 43.8427 20.7801 44.0766 21.1405C44.4053 21.6526 49.5705 19.1553 51.6632 18.1501C53.7558 17.1449 54.6788 16.5885 55.6398 16.4368C55.9031 16.3942 56.1697 16.3751 56.4364 16.3799C56.9674 16.3799 58.6491 16.5063 60.7607 18.4915C62.8723 20.4767 63.416 22.5883 63.7764 22.4745C63.985 22.4112 64.0546 21.6273 63.4539 18.5294" stroke="#4F2DF6" stroke-width="1.16448" stroke-miterlimit="10"/>
<path d="M66.3883 33.6242C66.4443 40.0408 64.5961 46.3299 61.0774 51.6959C57.5587 57.0619 52.5276 61.2638 46.6205 63.7701C40.7134 66.2764 34.1957 66.9744 27.8919 65.7759C21.588 64.5774 15.7812 61.5362 11.206 57.037C6.63073 52.5379 3.49264 46.7828 2.18862 40.4999C0.884611 34.217 1.47327 27.6885 3.88013 21.7402C6.287 15.7919 10.4039 10.691 15.7102 7.08282C21.0164 3.47463 27.2736 1.52124 33.6902 1.46972C35.9882 1.44184 38.2829 1.65372 40.537 2.10193C39.9997 2.10193 39.456 2.10193 38.9123 2.10193C23.8719 2.2347 11.7776 13.387 11.8978 27.0176C12.0179 40.6482 24.3018 51.5792 39.3422 51.4464C53.175 51.3263 64.5169 41.8747 66.148 29.7488C66.3048 31.0347 66.385 32.3288 66.3883 33.6242Z" fill="#4F2DF6"/>
<path d="M64.8512 33.6267C64.7564 54.2938 44.5129 69.663 24.5666 63.3408C4.78461 57.0503 -3.15599 32.4381 9.02676 15.7097C16.1328 5.93558 28.3409 1.44685 40.119 3.64696L40.5363 0.574388C23.7447 0.037004 7.36404 13.6866 10.8223 31.5087C14.2236 49.1476 35.1688 57.1198 50.8034 50.7471C59.528 47.1877 66.2358 39.5948 67.6835 30.1684L64.611 29.7512C64.7564 31.0156 64.8449 32.3306 64.8765 33.6267C64.9208 35.6371 68.0376 35.6434 67.9997 33.6267C67.968 32.3622 67.8858 31.0472 67.7341 29.7512C67.5571 28.177 64.9587 27.4373 64.6679 29.3402C61.431 50.2919 33.1331 56.3928 19.3951 41.5863C16.2448 38.2419 14.2458 33.9783 13.6896 29.4176C13.1335 24.8569 14.0493 20.2378 16.3035 16.2344C21.2158 7.67418 30.9203 3.39407 40.5363 3.69754C42.2622 3.75444 42.7048 0.96004 40.9472 0.631288C29.4536 -1.51825 17.6122 1.84514 9.45035 10.3611C5.77283 14.2318 3.04793 18.9063 1.4918 24.0136C-0.0643215 29.121 -0.408848 34.5207 0.485558 39.7845C4.32309 62.4368 30.4082 74.7334 50.4304 63.6759C55.759 60.6756 60.1927 56.3106 63.2759 51.0296C66.3592 45.7486 67.9809 39.7419 67.9744 33.6267C67.987 31.6099 64.8576 31.6099 64.8512 33.6267Z" fill="#4F2DF6"/>
</svg>
