<svg width="280" height="96" viewBox="0 0 280 96" fill="none" xmlns="http://www.w3.org/2000/svg">
<g filter="url(#filter0_d_242_2593)">
<rect x="4" y="2" width="272" height="88" rx="10" fill="#EBEBEB"/>
<g clip-path="url(#clip0_242_2593)">
<path d="M43.2778 47.6471C43.2778 47.153 42.9556 46.8236 42.4722 46.8236H32.8056C32.3222 46.8236 32 47.153 32 47.6471V55.8824C32 56.3765 32.3222 56.7059 32.8056 56.8706L42.4722 58.0236C42.9556 58.0236 43.2778 57.6942 43.2778 57.3648V47.6471ZM45.6944 46.8236C45.2111 46.8236 44.8889 47.153 44.8889 47.6471V57.3648C44.8889 57.8589 45.2111 58.1883 45.6944 58.353L60.1944 60.0001C60.6778 60.0001 61 59.6706 61 59.3412V47.8118C61 47.3177 60.6778 46.9883 60.1944 46.9883L45.6944 46.8236ZM43.2778 34.8001C43.2778 34.3059 42.9556 33.9765 42.4722 34.1412L32.8056 35.2942C32.3222 35.2942 32 35.6236 32 36.1177V44.353C32 44.8471 32.3222 45.1765 32.8056 45.1765H42.4722C42.9556 45.1765 43.2778 44.8471 43.2778 44.353V34.8001ZM45.6944 33.8118C45.2111 33.8118 44.8889 34.3059 44.8889 34.8001V44.5177C44.8889 45.0118 45.2111 45.3412 45.6944 45.3412H60.1944C60.6778 45.3412 61 45.0118 61 44.5177V32.9883C61 32.4942 60.6778 32.1648 60.1944 32.3295L45.6944 33.8118Z" fill="#252B42"/>
</g>
<path d="M87.162 36V26.2H91.614C92.678 26.2 93.616 26.4053 94.428 26.816C95.24 27.2173 95.8747 27.782 96.332 28.51C96.7893 29.238 97.018 30.1013 97.018 31.1C97.018 32.0893 96.7893 32.9527 96.332 33.69C95.8747 34.418 95.24 34.9873 94.428 35.398C93.616 35.7993 92.678 36 91.614 36H87.162ZM89.43 34.138H91.502C92.1553 34.138 92.72 34.0167 93.196 33.774C93.6813 33.522 94.0547 33.1673 94.316 32.71C94.5867 32.2527 94.722 31.716 94.722 31.1C94.722 30.4747 94.5867 29.938 94.316 29.49C94.0547 29.0327 93.6813 28.6827 93.196 28.44C92.72 28.188 92.1553 28.062 91.502 28.062H89.43V34.138ZM102.358 36.112C101.556 36.112 100.842 35.944 100.216 35.608C99.6004 35.272 99.1104 34.8147 98.7464 34.236C98.3917 33.648 98.2144 32.9807 98.2144 32.234C98.2144 31.478 98.3917 30.8107 98.7464 30.232C99.1104 29.644 99.6004 29.1867 100.216 28.86C100.842 28.524 101.556 28.356 102.358 28.356C103.152 28.356 103.861 28.524 104.486 28.86C105.112 29.1867 105.602 29.6393 105.956 30.218C106.311 30.7967 106.488 31.4687 106.488 32.234C106.488 32.9807 106.311 33.648 105.956 34.236C105.602 34.8147 105.112 35.272 104.486 35.608C103.861 35.944 103.152 36.112 102.358 36.112ZM102.358 34.32C102.722 34.32 103.049 34.236 103.338 34.068C103.628 33.9 103.856 33.662 104.024 33.354C104.192 33.0367 104.276 32.6633 104.276 32.234C104.276 31.7953 104.192 31.422 104.024 31.114C103.856 30.806 103.628 30.568 103.338 30.4C103.049 30.232 102.722 30.148 102.358 30.148C101.994 30.148 101.668 30.232 101.378 30.4C101.089 30.568 100.856 30.806 100.678 31.114C100.51 31.422 100.426 31.7953 100.426 32.234C100.426 32.6633 100.51 33.0367 100.678 33.354C100.856 33.662 101.089 33.9 101.378 34.068C101.668 34.236 101.994 34.32 102.358 34.32ZM109.665 36L106.949 28.468H109.007L111.261 34.95H110.281L112.633 28.468H114.481L116.763 34.95H115.783L118.107 28.468H120.039L117.309 36H115.195L113.193 30.442H113.837L111.765 36H109.665ZM125.832 28.356C126.43 28.356 126.962 28.4773 127.428 28.72C127.904 28.9533 128.278 29.3173 128.548 29.812C128.819 30.2973 128.954 30.9227 128.954 31.688V36H126.77V32.024C126.77 31.4173 126.635 30.9693 126.364 30.68C126.103 30.3907 125.73 30.246 125.244 30.246C124.899 30.246 124.586 30.3207 124.306 30.47C124.036 30.61 123.821 30.8293 123.662 31.128C123.513 31.4267 123.438 31.8093 123.438 32.276V36H121.254V28.468H123.34V30.554L122.948 29.924C123.219 29.42 123.606 29.0327 124.11 28.762C124.614 28.4913 125.188 28.356 125.832 28.356ZM131.134 36V25.612H133.318V36H131.134ZM139.129 36.112C138.326 36.112 137.612 35.944 136.987 35.608C136.371 35.272 135.881 34.8147 135.517 34.236C135.162 33.648 134.985 32.9807 134.985 32.234C134.985 31.478 135.162 30.8107 135.517 30.232C135.881 29.644 136.371 29.1867 136.987 28.86C137.612 28.524 138.326 28.356 139.129 28.356C139.922 28.356 140.632 28.524 141.257 28.86C141.882 29.1867 142.372 29.6393 142.727 30.218C143.082 30.7967 143.259 31.4687 143.259 32.234C143.259 32.9807 143.082 33.648 142.727 34.236C142.372 34.8147 141.882 35.272 141.257 35.608C140.632 35.944 139.922 36.112 139.129 36.112ZM139.129 34.32C139.493 34.32 139.82 34.236 140.109 34.068C140.398 33.9 140.627 33.662 140.795 33.354C140.963 33.0367 141.047 32.6633 141.047 32.234C141.047 31.7953 140.963 31.422 140.795 31.114C140.627 30.806 140.398 30.568 140.109 30.4C139.82 30.232 139.493 30.148 139.129 30.148C138.765 30.148 138.438 30.232 138.149 30.4C137.86 30.568 137.626 30.806 137.449 31.114C137.281 31.422 137.197 31.7953 137.197 32.234C137.197 32.6633 137.281 33.0367 137.449 33.354C137.626 33.662 137.86 33.9 138.149 34.068C138.438 34.236 138.765 34.32 139.129 34.32ZM149.416 36V34.53L149.276 34.208V31.576C149.276 31.1093 149.131 30.7453 148.842 30.484C148.562 30.2227 148.128 30.092 147.54 30.092C147.139 30.092 146.742 30.1573 146.35 30.288C145.967 30.4093 145.641 30.5773 145.37 30.792L144.586 29.266C144.997 28.9767 145.491 28.7527 146.07 28.594C146.649 28.4353 147.237 28.356 147.834 28.356C148.982 28.356 149.873 28.6267 150.508 29.168C151.143 29.7093 151.46 30.554 151.46 31.702V36H149.416ZM147.12 36.112C146.532 36.112 146.028 36.014 145.608 35.818C145.188 35.6127 144.866 35.3373 144.642 34.992C144.418 34.6467 144.306 34.2593 144.306 33.83C144.306 33.382 144.413 32.99 144.628 32.654C144.852 32.318 145.202 32.0567 145.678 31.87C146.154 31.674 146.775 31.576 147.54 31.576H149.542V32.85H147.778C147.265 32.85 146.91 32.934 146.714 33.102C146.527 33.27 146.434 33.48 146.434 33.732C146.434 34.012 146.541 34.236 146.756 34.404C146.98 34.5627 147.283 34.642 147.666 34.642C148.03 34.642 148.357 34.558 148.646 34.39C148.935 34.2127 149.145 33.956 149.276 33.62L149.612 34.628C149.453 35.1133 149.164 35.482 148.744 35.734C148.324 35.986 147.783 36.112 147.12 36.112ZM156.925 36.112C156.216 36.112 155.577 35.9533 155.007 35.636C154.438 35.3093 153.985 34.8567 153.649 34.278C153.323 33.6993 153.159 33.018 153.159 32.234C153.159 31.4407 153.323 30.7547 153.649 30.176C153.985 29.5973 154.438 29.1493 155.007 28.832C155.577 28.5147 156.216 28.356 156.925 28.356C157.56 28.356 158.115 28.496 158.591 28.776C159.067 29.056 159.436 29.4807 159.697 30.05C159.959 30.6193 160.089 31.3473 160.089 32.234C160.089 33.1113 159.963 33.8393 159.711 34.418C159.459 34.9873 159.095 35.412 158.619 35.692C158.153 35.972 157.588 36.112 156.925 36.112ZM157.303 34.32C157.658 34.32 157.98 34.236 158.269 34.068C158.559 33.9 158.787 33.662 158.955 33.354C159.133 33.0367 159.221 32.6633 159.221 32.234C159.221 31.7953 159.133 31.422 158.955 31.114C158.787 30.806 158.559 30.568 158.269 30.4C157.98 30.232 157.658 30.148 157.303 30.148C156.939 30.148 156.613 30.232 156.323 30.4C156.034 30.568 155.801 30.806 155.623 31.114C155.455 31.422 155.371 31.7953 155.371 32.234C155.371 32.6633 155.455 33.0367 155.623 33.354C155.801 33.662 156.034 33.9 156.323 34.068C156.613 34.236 156.939 34.32 157.303 34.32ZM159.277 36V34.46L159.319 32.22L159.179 29.994V25.612H161.363V36H159.277ZM171.333 36.112C170.531 36.112 169.817 35.944 169.191 35.608C168.575 35.272 168.085 34.8147 167.721 34.236C167.367 33.648 167.189 32.9807 167.189 32.234C167.189 31.478 167.367 30.8107 167.721 30.232C168.085 29.644 168.575 29.1867 169.191 28.86C169.817 28.524 170.531 28.356 171.333 28.356C172.127 28.356 172.836 28.524 173.461 28.86C174.087 29.1867 174.577 29.6393 174.931 30.218C175.286 30.7967 175.463 31.4687 175.463 32.234C175.463 32.9807 175.286 33.648 174.931 34.236C174.577 34.8147 174.087 35.272 173.461 35.608C172.836 35.944 172.127 36.112 171.333 36.112ZM171.333 34.32C171.697 34.32 172.024 34.236 172.313 34.068C172.603 33.9 172.831 33.662 172.999 33.354C173.167 33.0367 173.251 32.6633 173.251 32.234C173.251 31.7953 173.167 31.422 172.999 31.114C172.831 30.806 172.603 30.568 172.313 30.4C172.024 30.232 171.697 30.148 171.333 30.148C170.969 30.148 170.643 30.232 170.353 30.4C170.064 30.568 169.831 30.806 169.653 31.114C169.485 31.422 169.401 31.7953 169.401 32.234C169.401 32.6633 169.485 33.0367 169.653 33.354C169.831 33.662 170.064 33.9 170.353 34.068C170.643 34.236 170.969 34.32 171.333 34.32ZM181.701 28.356C182.299 28.356 182.831 28.4773 183.297 28.72C183.773 28.9533 184.147 29.3173 184.417 29.812C184.688 30.2973 184.823 30.9227 184.823 31.688V36H182.639V32.024C182.639 31.4173 182.504 30.9693 182.233 30.68C181.972 30.3907 181.599 30.246 181.113 30.246C180.768 30.246 180.455 30.3207 180.175 30.47C179.905 30.61 179.69 30.8293 179.531 31.128C179.382 31.4267 179.307 31.8093 179.307 32.276V36H177.123V28.468H179.209V30.554L178.817 29.924C179.088 29.42 179.475 29.0327 179.979 28.762C180.483 28.4913 181.057 28.356 181.701 28.356ZM194.248 36.112C193.361 36.112 192.67 35.888 192.176 35.44C191.681 34.9827 191.434 34.306 191.434 33.41V26.802H193.618V33.382C193.618 33.6993 193.702 33.9467 193.87 34.124C194.038 34.292 194.266 34.376 194.556 34.376C194.901 34.376 195.195 34.2827 195.438 34.096L196.026 35.636C195.802 35.7947 195.531 35.916 195.214 36C194.906 36.0747 194.584 36.112 194.248 36.112ZM190.272 30.316V28.636H195.494V30.316H190.272ZM202.03 28.356C202.627 28.356 203.159 28.4773 203.626 28.72C204.102 28.9533 204.475 29.3173 204.746 29.812C205.016 30.2973 205.152 30.9227 205.152 31.688V36H202.968V32.024C202.968 31.4173 202.832 30.9693 202.562 30.68C202.3 30.3907 201.927 30.246 201.442 30.246C201.096 30.246 200.784 30.3207 200.504 30.47C200.233 30.61 200.018 30.8293 199.86 31.128C199.71 31.4267 199.636 31.8093 199.636 32.276V36H197.452V25.612H199.636V30.554L199.146 29.924C199.416 29.42 199.804 29.0327 200.308 28.762C200.812 28.4913 201.386 28.356 202.03 28.356ZM211.124 36.112C210.265 36.112 209.509 35.944 208.856 35.608C208.212 35.272 207.713 34.8147 207.358 34.236C207.003 33.648 206.826 32.9807 206.826 32.234C206.826 31.478 206.999 30.8107 207.344 30.232C207.699 29.644 208.179 29.1867 208.786 28.86C209.393 28.524 210.079 28.356 210.844 28.356C211.581 28.356 212.244 28.5147 212.832 28.832C213.429 29.14 213.901 29.588 214.246 30.176C214.591 30.7547 214.764 31.45 214.764 32.262C214.764 32.346 214.759 32.444 214.75 32.556C214.741 32.6587 214.731 32.7567 214.722 32.85H208.604V31.576H213.574L212.734 31.954C212.734 31.562 212.655 31.2213 212.496 30.932C212.337 30.6427 212.118 30.4187 211.838 30.26C211.558 30.092 211.231 30.008 210.858 30.008C210.485 30.008 210.153 30.092 209.864 30.26C209.584 30.4187 209.365 30.6473 209.206 30.946C209.047 31.2353 208.968 31.5807 208.968 31.982V32.318C208.968 32.7287 209.057 33.0927 209.234 33.41C209.421 33.718 209.677 33.956 210.004 34.124C210.34 34.2827 210.732 34.362 211.18 34.362C211.581 34.362 211.931 34.3013 212.23 34.18C212.538 34.0587 212.818 33.8767 213.07 33.634L214.232 34.894C213.887 35.286 213.453 35.5893 212.93 35.804C212.407 36.0093 211.805 36.112 211.124 36.112Z" fill="#252B42"/>
<path d="M91.32 64L86.64 50H88.7L93 62.92H91.96L96.42 50H98.26L102.62 62.92H101.62L105.98 50H107.88L103.2 64H101.1L97.02 52.02H97.56L93.46 64H91.32ZM110.247 64V53.4H112.167V64H110.247ZM111.207 51.36C110.833 51.36 110.52 51.24 110.267 51C110.027 50.76 109.907 50.4667 109.907 50.12C109.907 49.76 110.027 49.46 110.267 49.22C110.52 48.98 110.833 48.86 111.207 48.86C111.58 48.86 111.887 48.98 112.127 49.22C112.38 49.4467 112.507 49.7333 112.507 50.08C112.507 50.44 112.387 50.7467 112.147 51C111.907 51.24 111.593 51.36 111.207 51.36ZM121.692 53.3C122.559 53.3 123.319 53.4667 123.973 53.8C124.639 54.1333 125.159 54.64 125.533 55.32C125.906 56 126.093 56.86 126.093 57.9V64H124.173V58.12C124.173 57.0933 123.919 56.32 123.412 55.8C122.919 55.28 122.219 55.02 121.312 55.02C120.633 55.02 120.039 55.1533 119.532 55.42C119.026 55.6867 118.632 56.08 118.352 56.6C118.086 57.12 117.952 57.7667 117.952 58.54V64H116.032V53.4H117.872V56.26L117.572 55.5C117.919 54.8067 118.452 54.2667 119.172 53.88C119.892 53.4933 120.732 53.3 121.692 53.3ZM134.226 64.12C133.199 64.12 132.279 63.8933 131.466 63.44C130.666 62.9867 130.032 62.3533 129.566 61.54C129.099 60.7267 128.866 59.78 128.866 58.7C128.866 57.62 129.099 56.68 129.566 55.88C130.032 55.0667 130.666 54.4333 131.466 53.98C132.279 53.5267 133.199 53.3 134.226 53.3C135.119 53.3 135.926 53.5 136.646 53.9C137.366 54.3 137.939 54.9 138.366 55.7C138.806 56.5 139.026 57.5 139.026 58.7C139.026 59.9 138.812 60.9 138.386 61.7C137.972 62.5 137.406 63.1067 136.686 63.52C135.966 63.92 135.146 64.12 134.226 64.12ZM134.386 62.44C135.052 62.44 135.652 62.2867 136.186 61.98C136.732 61.6733 137.159 61.24 137.466 60.68C137.786 60.1067 137.946 59.4467 137.946 58.7C137.946 57.94 137.786 57.2867 137.466 56.74C137.159 56.18 136.732 55.7467 136.186 55.44C135.652 55.1333 135.052 54.98 134.386 54.98C133.706 54.98 133.099 55.1333 132.566 55.44C132.032 55.7467 131.606 56.18 131.286 56.74C130.966 57.2867 130.806 57.94 130.806 58.7C130.806 59.4467 130.966 60.1067 131.286 60.68C131.606 61.24 132.032 61.6733 132.566 61.98C133.099 62.2867 133.706 62.44 134.386 62.44ZM138.006 64V61.14L138.126 58.68L137.926 56.22V49.16H139.846V64H138.006ZM148.219 64.12C147.152 64.12 146.205 63.8867 145.379 63.42C144.552 62.9533 143.899 62.3133 143.419 61.5C142.939 60.6733 142.699 59.74 142.699 58.7C142.699 57.6467 142.939 56.7133 143.419 55.9C143.899 55.0867 144.552 54.4533 145.379 54C146.205 53.5333 147.152 53.3 148.219 53.3C149.272 53.3 150.212 53.5333 151.039 54C151.879 54.4533 152.532 55.0867 152.999 55.9C153.479 56.7 153.719 57.6333 153.719 58.7C153.719 59.7533 153.479 60.6867 152.999 61.5C152.532 62.3133 151.879 62.9533 151.039 63.42C150.212 63.8867 149.272 64.12 148.219 64.12ZM148.219 62.44C148.899 62.44 149.505 62.2867 150.039 61.98C150.585 61.6733 151.012 61.24 151.319 60.68C151.625 60.1067 151.779 59.4467 151.779 58.7C151.779 57.94 151.625 57.2867 151.319 56.74C151.012 56.18 150.585 55.7467 150.039 55.44C149.505 55.1333 148.899 54.98 148.219 54.98C147.539 54.98 146.932 55.1333 146.399 55.44C145.865 55.7467 145.439 56.18 145.119 56.74C144.799 57.2867 144.639 57.94 144.639 58.7C144.639 59.4467 144.799 60.1067 145.119 60.68C145.439 61.24 145.865 61.6733 146.399 61.98C146.932 62.2867 147.539 62.44 148.219 62.44ZM158.521 64L154.581 53.4H156.401L159.901 63H159.041L162.681 53.4H164.301L167.861 63H167.021L170.601 53.4H172.321L168.361 64H166.521L163.181 55.24H163.741L160.361 64H158.521ZM177.372 64.12C176.492 64.12 175.652 64 174.852 63.76C174.066 63.52 173.446 63.2267 172.992 62.88L173.792 61.36C174.246 61.6667 174.806 61.9267 175.472 62.14C176.139 62.3533 176.819 62.46 177.512 62.46C178.406 62.46 179.046 62.3333 179.432 62.08C179.832 61.8267 180.032 61.4733 180.032 61.02C180.032 60.6867 179.912 60.4267 179.672 60.24C179.432 60.0533 179.112 59.9133 178.712 59.82C178.326 59.7267 177.892 59.6467 177.412 59.58C176.932 59.5 176.452 59.4067 175.972 59.3C175.492 59.18 175.052 59.02 174.652 58.82C174.252 58.6067 173.932 58.32 173.692 57.96C173.452 57.5867 173.332 57.0933 173.332 56.48C173.332 55.84 173.512 55.28 173.872 54.8C174.232 54.32 174.739 53.9533 175.392 53.7C176.059 53.4333 176.846 53.3 177.752 53.3C178.446 53.3 179.146 53.3867 179.852 53.56C180.572 53.72 181.159 53.9533 181.612 54.26L180.792 55.78C180.312 55.46 179.812 55.24 179.292 55.12C178.772 55 178.252 54.94 177.732 54.94C176.892 54.94 176.266 55.08 175.852 55.36C175.439 55.6267 175.232 55.9733 175.232 56.4C175.232 56.76 175.352 57.04 175.592 57.24C175.846 57.4267 176.166 57.5733 176.552 57.68C176.952 57.7867 177.392 57.88 177.872 57.96C178.352 58.0267 178.832 58.12 179.312 58.24C179.792 58.3467 180.226 58.5 180.612 58.7C181.012 58.9 181.332 59.18 181.572 59.54C181.826 59.9 181.952 60.38 181.952 60.98C181.952 61.62 181.766 62.1733 181.392 62.64C181.019 63.1067 180.492 63.4733 179.812 63.74C179.132 63.9933 178.319 64.12 177.372 64.12ZM194.483 64.16C193.416 64.16 192.396 64 191.423 63.68C190.45 63.3467 189.683 62.92 189.123 62.4L189.863 60.84C190.396 61.3067 191.076 61.6933 191.903 62C192.73 62.3067 193.59 62.46 194.483 62.46C195.296 62.46 195.956 62.3667 196.463 62.18C196.97 61.9933 197.343 61.74 197.583 61.42C197.823 61.0867 197.943 60.7133 197.943 60.3C197.943 59.82 197.783 59.4333 197.463 59.14C197.156 58.8467 196.75 58.6133 196.243 58.44C195.75 58.2533 195.203 58.0933 194.603 57.96C194.003 57.8267 193.396 57.6733 192.783 57.5C192.183 57.3133 191.63 57.08 191.123 56.8C190.63 56.52 190.23 56.1467 189.923 55.68C189.616 55.2 189.463 54.5867 189.463 53.84C189.463 53.12 189.65 52.46 190.023 51.86C190.41 51.2467 190.996 50.76 191.783 50.4C192.583 50.0267 193.596 49.84 194.823 49.84C195.636 49.84 196.443 49.9467 197.243 50.16C198.043 50.3733 198.736 50.68 199.323 51.08L198.663 52.68C198.063 52.28 197.43 51.9933 196.763 51.82C196.096 51.6333 195.45 51.54 194.823 51.54C194.036 51.54 193.39 51.64 192.883 51.84C192.376 52.04 192.003 52.3067 191.763 52.64C191.536 52.9733 191.423 53.3467 191.423 53.76C191.423 54.2533 191.576 54.6467 191.883 54.94C192.203 55.2333 192.61 55.4667 193.103 55.64C193.61 55.8133 194.163 55.9733 194.763 56.12C195.363 56.2533 195.963 56.4067 196.563 56.58C197.176 56.7533 197.73 56.98 198.223 57.26C198.73 57.54 199.136 57.9133 199.443 58.38C199.75 58.8467 199.903 59.4467 199.903 60.18C199.903 60.8867 199.71 61.5467 199.323 62.16C198.936 62.76 198.336 63.2467 197.523 63.62C196.723 63.98 195.71 64.16 194.483 64.16ZM206.385 64.12C205.318 64.12 204.492 63.8333 203.905 63.26C203.318 62.6867 203.025 61.8667 203.025 60.8V51.08H204.945V60.72C204.945 61.2933 205.085 61.7333 205.365 62.04C205.658 62.3467 206.072 62.5 206.605 62.5C207.205 62.5 207.705 62.3333 208.105 62L208.705 63.38C208.412 63.6333 208.058 63.82 207.645 63.94C207.245 64.06 206.825 64.12 206.385 64.12ZM201.225 54.98V53.4H207.985V54.98H201.225ZM215.415 64.12C214.348 64.12 213.401 63.8867 212.575 63.42C211.748 62.9533 211.095 62.3133 210.615 61.5C210.135 60.6733 209.895 59.74 209.895 58.7C209.895 57.6467 210.135 56.7133 210.615 55.9C211.095 55.0867 211.748 54.4533 212.575 54C213.401 53.5333 214.348 53.3 215.415 53.3C216.468 53.3 217.408 53.5333 218.235 54C219.075 54.4533 219.728 55.0867 220.195 55.9C220.675 56.7 220.915 57.6333 220.915 58.7C220.915 59.7533 220.675 60.6867 220.195 61.5C219.728 62.3133 219.075 62.9533 218.235 63.42C217.408 63.8867 216.468 64.12 215.415 64.12ZM215.415 62.44C216.095 62.44 216.701 62.2867 217.235 61.98C217.781 61.6733 218.208 61.24 218.515 60.68C218.821 60.1067 218.975 59.4467 218.975 58.7C218.975 57.94 218.821 57.2867 218.515 56.74C218.208 56.18 217.781 55.7467 217.235 55.44C216.701 55.1333 216.095 54.98 215.415 54.98C214.735 54.98 214.128 55.1333 213.595 55.44C213.061 55.7467 212.635 56.18 212.315 56.74C211.995 57.2867 211.835 57.94 211.835 58.7C211.835 59.4467 211.995 60.1067 212.315 60.68C212.635 61.24 213.061 61.6733 213.595 61.98C214.128 62.2867 214.735 62.44 215.415 62.44ZM223.77 64V53.4H225.61V56.28L225.43 55.56C225.723 54.8267 226.217 54.2667 226.91 53.88C227.603 53.4933 228.457 53.3 229.47 53.3V55.16C229.39 55.1467 229.31 55.14 229.23 55.14C229.163 55.14 229.097 55.14 229.03 55.14C228.003 55.14 227.19 55.4467 226.59 56.06C225.99 56.6733 225.69 57.56 225.69 58.72V64H223.77ZM236.659 64.12C235.525 64.12 234.525 63.8867 233.659 63.42C232.805 62.9533 232.139 62.3133 231.659 61.5C231.192 60.6867 230.959 59.7533 230.959 58.7C230.959 57.6467 231.185 56.7133 231.639 55.9C232.105 55.0867 232.739 54.4533 233.539 54C234.352 53.5333 235.265 53.3 236.279 53.3C237.305 53.3 238.212 53.5267 238.999 53.98C239.785 54.4333 240.399 55.0733 240.839 55.9C241.292 56.7133 241.519 57.6667 241.519 58.76C241.519 58.84 241.512 58.9333 241.499 59.04C241.499 59.1467 241.492 59.2467 241.479 59.34H232.459V57.96H240.479L239.699 58.44C239.712 57.76 239.572 57.1533 239.279 56.62C238.985 56.0867 238.579 55.6733 238.059 55.38C237.552 55.0733 236.959 54.92 236.279 54.92C235.612 54.92 235.019 55.0733 234.499 55.38C233.979 55.6733 233.572 56.0933 233.279 56.64C232.985 57.1733 232.839 57.7867 232.839 58.48V58.8C232.839 59.5067 232.999 60.14 233.319 60.7C233.652 61.2467 234.112 61.6733 234.699 61.98C235.285 62.2867 235.959 62.44 236.719 62.44C237.345 62.44 237.912 62.3333 238.419 62.12C238.939 61.9067 239.392 61.5867 239.779 61.16L240.839 62.4C240.359 62.96 239.759 63.3867 239.039 63.68C238.332 63.9733 237.539 64.12 236.659 64.12Z" fill="#252B42"/>
<rect x="4.5" y="2.5" width="271" height="87" rx="9.5" stroke="#BDBDBD"/>
</g>
<defs>
<filter id="filter0_d_242_2593" x="0" y="0" width="280" height="96" filterUnits="userSpaceOnUse" color-interpolation-filters="sRGB">
<feFlood flood-opacity="0" result="BackgroundImageFix"/>
<feColorMatrix in="SourceAlpha" type="matrix" values="0 0 0 0 0 0 0 0 0 0 0 0 0 0 0 0 0 0 127 0" result="hardAlpha"/>
<feOffset dy="2"/>
<feGaussianBlur stdDeviation="2"/>
<feColorMatrix type="matrix" values="0 0 0 0 0 0 0 0 0 0 0 0 0 0 0 0 0 0 0.1 0"/>
<feBlend mode="normal" in2="BackgroundImageFix" result="effect1_dropShadow_242_2593"/>
<feBlend mode="normal" in="SourceGraphic" in2="effect1_dropShadow_242_2593" result="shape"/>
</filter>
<clipPath id="clip0_242_2593">
<rect width="29" height="28.0001" fill="white" transform="translate(32 32)"/>
</clipPath>
</defs>
</svg>
