<svg width="258" height="96" viewBox="0 0 258 96" fill="none" xmlns="http://www.w3.org/2000/svg">
<g filter="url(#filter0_d_242_2594)">
<rect x="4" y="2" width="250" height="88" rx="10" fill="#EBEBEB"/>
<g clip-path="url(#clip0_242_2594)">
<path d="M50.9614 45.1891L57.2233 38.9466L36.9976 27.6141C35.6572 26.8921 34.4014 26.7908 33.3002 27.5804L50.9614 45.1891ZM58.2906 52.4978L64.8002 48.8477C66.0708 48.1384 66.7675 47.1335 66.7675 46.0188C66.7675 44.9063 66.0708 43.8993 64.8023 43.1899L58.9089 39.8903L52.2744 46.5023L58.2906 52.4978ZM32.2118 29.1151C32.0762 29.531 32 29.9955 32 30.5043V61.5481C32 62.3525 32.1779 63.0449 32.4998 63.5959L49.6464 46.5002L32.2118 29.1151ZM50.9614 47.809L33.9101 64.8098C34.2362 64.9344 34.5878 64.9998 34.9584 64.9998C35.6191 64.9998 36.3073 64.8056 37.0082 64.4171L56.6071 53.4457L50.9614 47.809Z" fill="#252B42"/>
</g>
<path d="M93.162 36V26.2H97.614C98.678 26.2 99.616 26.4053 100.428 26.816C101.24 27.2173 101.875 27.782 102.332 28.51C102.789 29.238 103.018 30.1013 103.018 31.1C103.018 32.0893 102.789 32.9527 102.332 33.69C101.875 34.418 101.24 34.9873 100.428 35.398C99.616 35.7993 98.678 36 97.614 36H93.162ZM95.43 34.138H97.502C98.1553 34.138 98.72 34.0167 99.196 33.774C99.6813 33.522 100.055 33.1673 100.316 32.71C100.587 32.2527 100.722 31.716 100.722 31.1C100.722 30.4747 100.587 29.938 100.316 29.49C100.055 29.0327 99.6813 28.6827 99.196 28.44C98.72 28.188 98.1553 28.062 97.502 28.062H95.43V34.138ZM108.358 36.112C107.556 36.112 106.842 35.944 106.216 35.608C105.6 35.272 105.11 34.8147 104.746 34.236C104.392 33.648 104.214 32.9807 104.214 32.234C104.214 31.478 104.392 30.8107 104.746 30.232C105.11 29.644 105.6 29.1867 106.216 28.86C106.842 28.524 107.556 28.356 108.358 28.356C109.152 28.356 109.861 28.524 110.486 28.86C111.112 29.1867 111.602 29.6393 111.956 30.218C112.311 30.7967 112.488 31.4687 112.488 32.234C112.488 32.9807 112.311 33.648 111.956 34.236C111.602 34.8147 111.112 35.272 110.486 35.608C109.861 35.944 109.152 36.112 108.358 36.112ZM108.358 34.32C108.722 34.32 109.049 34.236 109.338 34.068C109.628 33.9 109.856 33.662 110.024 33.354C110.192 33.0367 110.276 32.6633 110.276 32.234C110.276 31.7953 110.192 31.422 110.024 31.114C109.856 30.806 109.628 30.568 109.338 30.4C109.049 30.232 108.722 30.148 108.358 30.148C107.994 30.148 107.668 30.232 107.378 30.4C107.089 30.568 106.856 30.806 106.678 31.114C106.51 31.422 106.426 31.7953 106.426 32.234C106.426 32.6633 106.51 33.0367 106.678 33.354C106.856 33.662 107.089 33.9 107.378 34.068C107.668 34.236 107.994 34.32 108.358 34.32ZM115.665 36L112.949 28.468H115.007L117.261 34.95H116.281L118.633 28.468H120.481L122.763 34.95H121.783L124.107 28.468H126.039L123.309 36H121.195L119.193 30.442H119.837L117.765 36H115.665ZM131.832 28.356C132.43 28.356 132.962 28.4773 133.428 28.72C133.904 28.9533 134.278 29.3173 134.548 29.812C134.819 30.2973 134.954 30.9227 134.954 31.688V36H132.77V32.024C132.77 31.4173 132.635 30.9693 132.364 30.68C132.103 30.3907 131.73 30.246 131.244 30.246C130.899 30.246 130.586 30.3207 130.306 30.47C130.036 30.61 129.821 30.8293 129.662 31.128C129.513 31.4267 129.438 31.8093 129.438 32.276V36H127.254V28.468H129.34V30.554L128.948 29.924C129.219 29.42 129.606 29.0327 130.11 28.762C130.614 28.4913 131.188 28.356 131.832 28.356ZM137.134 36V25.612H139.318V36H137.134ZM145.129 36.112C144.326 36.112 143.612 35.944 142.987 35.608C142.371 35.272 141.881 34.8147 141.517 34.236C141.162 33.648 140.985 32.9807 140.985 32.234C140.985 31.478 141.162 30.8107 141.517 30.232C141.881 29.644 142.371 29.1867 142.987 28.86C143.612 28.524 144.326 28.356 145.129 28.356C145.922 28.356 146.632 28.524 147.257 28.86C147.882 29.1867 148.372 29.6393 148.727 30.218C149.082 30.7967 149.259 31.4687 149.259 32.234C149.259 32.9807 149.082 33.648 148.727 34.236C148.372 34.8147 147.882 35.272 147.257 35.608C146.632 35.944 145.922 36.112 145.129 36.112ZM145.129 34.32C145.493 34.32 145.82 34.236 146.109 34.068C146.398 33.9 146.627 33.662 146.795 33.354C146.963 33.0367 147.047 32.6633 147.047 32.234C147.047 31.7953 146.963 31.422 146.795 31.114C146.627 30.806 146.398 30.568 146.109 30.4C145.82 30.232 145.493 30.148 145.129 30.148C144.765 30.148 144.438 30.232 144.149 30.4C143.86 30.568 143.626 30.806 143.449 31.114C143.281 31.422 143.197 31.7953 143.197 32.234C143.197 32.6633 143.281 33.0367 143.449 33.354C143.626 33.662 143.86 33.9 144.149 34.068C144.438 34.236 144.765 34.32 145.129 34.32ZM155.416 36V34.53L155.276 34.208V31.576C155.276 31.1093 155.131 30.7453 154.842 30.484C154.562 30.2227 154.128 30.092 153.54 30.092C153.139 30.092 152.742 30.1573 152.35 30.288C151.967 30.4093 151.641 30.5773 151.37 30.792L150.586 29.266C150.997 28.9767 151.491 28.7527 152.07 28.594C152.649 28.4353 153.237 28.356 153.834 28.356C154.982 28.356 155.873 28.6267 156.508 29.168C157.143 29.7093 157.46 30.554 157.46 31.702V36H155.416ZM153.12 36.112C152.532 36.112 152.028 36.014 151.608 35.818C151.188 35.6127 150.866 35.3373 150.642 34.992C150.418 34.6467 150.306 34.2593 150.306 33.83C150.306 33.382 150.413 32.99 150.628 32.654C150.852 32.318 151.202 32.0567 151.678 31.87C152.154 31.674 152.775 31.576 153.54 31.576H155.542V32.85H153.778C153.265 32.85 152.91 32.934 152.714 33.102C152.527 33.27 152.434 33.48 152.434 33.732C152.434 34.012 152.541 34.236 152.756 34.404C152.98 34.5627 153.283 34.642 153.666 34.642C154.03 34.642 154.357 34.558 154.646 34.39C154.935 34.2127 155.145 33.956 155.276 33.62L155.612 34.628C155.453 35.1133 155.164 35.482 154.744 35.734C154.324 35.986 153.783 36.112 153.12 36.112ZM162.925 36.112C162.216 36.112 161.577 35.9533 161.007 35.636C160.438 35.3093 159.985 34.8567 159.649 34.278C159.323 33.6993 159.159 33.018 159.159 32.234C159.159 31.4407 159.323 30.7547 159.649 30.176C159.985 29.5973 160.438 29.1493 161.007 28.832C161.577 28.5147 162.216 28.356 162.925 28.356C163.56 28.356 164.115 28.496 164.591 28.776C165.067 29.056 165.436 29.4807 165.697 30.05C165.959 30.6193 166.089 31.3473 166.089 32.234C166.089 33.1113 165.963 33.8393 165.711 34.418C165.459 34.9873 165.095 35.412 164.619 35.692C164.153 35.972 163.588 36.112 162.925 36.112ZM163.303 34.32C163.658 34.32 163.98 34.236 164.269 34.068C164.559 33.9 164.787 33.662 164.955 33.354C165.133 33.0367 165.221 32.6633 165.221 32.234C165.221 31.7953 165.133 31.422 164.955 31.114C164.787 30.806 164.559 30.568 164.269 30.4C163.98 30.232 163.658 30.148 163.303 30.148C162.939 30.148 162.613 30.232 162.323 30.4C162.034 30.568 161.801 30.806 161.623 31.114C161.455 31.422 161.371 31.7953 161.371 32.234C161.371 32.6633 161.455 33.0367 161.623 33.354C161.801 33.662 162.034 33.9 162.323 34.068C162.613 34.236 162.939 34.32 163.303 34.32ZM165.277 36V34.46L165.319 32.22L165.179 29.994V25.612H167.363V36H165.277ZM177.333 36.112C176.531 36.112 175.817 35.944 175.191 35.608C174.575 35.272 174.085 34.8147 173.721 34.236C173.367 33.648 173.189 32.9807 173.189 32.234C173.189 31.478 173.367 30.8107 173.721 30.232C174.085 29.644 174.575 29.1867 175.191 28.86C175.817 28.524 176.531 28.356 177.333 28.356C178.127 28.356 178.836 28.524 179.461 28.86C180.087 29.1867 180.577 29.6393 180.931 30.218C181.286 30.7967 181.463 31.4687 181.463 32.234C181.463 32.9807 181.286 33.648 180.931 34.236C180.577 34.8147 180.087 35.272 179.461 35.608C178.836 35.944 178.127 36.112 177.333 36.112ZM177.333 34.32C177.697 34.32 178.024 34.236 178.313 34.068C178.603 33.9 178.831 33.662 178.999 33.354C179.167 33.0367 179.251 32.6633 179.251 32.234C179.251 31.7953 179.167 31.422 178.999 31.114C178.831 30.806 178.603 30.568 178.313 30.4C178.024 30.232 177.697 30.148 177.333 30.148C176.969 30.148 176.643 30.232 176.353 30.4C176.064 30.568 175.831 30.806 175.653 31.114C175.485 31.422 175.401 31.7953 175.401 32.234C175.401 32.6633 175.485 33.0367 175.653 33.354C175.831 33.662 176.064 33.9 176.353 34.068C176.643 34.236 176.969 34.32 177.333 34.32ZM187.701 28.356C188.299 28.356 188.831 28.4773 189.297 28.72C189.773 28.9533 190.147 29.3173 190.417 29.812C190.688 30.2973 190.823 30.9227 190.823 31.688V36H188.639V32.024C188.639 31.4173 188.504 30.9693 188.233 30.68C187.972 30.3907 187.599 30.246 187.113 30.246C186.768 30.246 186.455 30.3207 186.175 30.47C185.905 30.61 185.69 30.8293 185.531 31.128C185.382 31.4267 185.307 31.8093 185.307 32.276V36H183.123V28.468H185.209V30.554L184.817 29.924C185.088 29.42 185.475 29.0327 185.979 28.762C186.483 28.4913 187.057 28.356 187.701 28.356ZM200.248 36.112C199.361 36.112 198.67 35.888 198.176 35.44C197.681 34.9827 197.434 34.306 197.434 33.41V26.802H199.618V33.382C199.618 33.6993 199.702 33.9467 199.87 34.124C200.038 34.292 200.266 34.376 200.556 34.376C200.901 34.376 201.195 34.2827 201.438 34.096L202.026 35.636C201.802 35.7947 201.531 35.916 201.214 36C200.906 36.0747 200.584 36.112 200.248 36.112ZM196.272 30.316V28.636H201.494V30.316H196.272ZM208.03 28.356C208.627 28.356 209.159 28.4773 209.626 28.72C210.102 28.9533 210.475 29.3173 210.746 29.812C211.016 30.2973 211.152 30.9227 211.152 31.688V36H208.968V32.024C208.968 31.4173 208.832 30.9693 208.562 30.68C208.3 30.3907 207.927 30.246 207.442 30.246C207.096 30.246 206.784 30.3207 206.504 30.47C206.233 30.61 206.018 30.8293 205.86 31.128C205.71 31.4267 205.636 31.8093 205.636 32.276V36H203.452V25.612H205.636V30.554L205.146 29.924C205.416 29.42 205.804 29.0327 206.308 28.762C206.812 28.4913 207.386 28.356 208.03 28.356ZM217.124 36.112C216.265 36.112 215.509 35.944 214.856 35.608C214.212 35.272 213.713 34.8147 213.358 34.236C213.003 33.648 212.826 32.9807 212.826 32.234C212.826 31.478 212.999 30.8107 213.344 30.232C213.699 29.644 214.179 29.1867 214.786 28.86C215.393 28.524 216.079 28.356 216.844 28.356C217.581 28.356 218.244 28.5147 218.832 28.832C219.429 29.14 219.901 29.588 220.246 30.176C220.591 30.7547 220.764 31.45 220.764 32.262C220.764 32.346 220.759 32.444 220.75 32.556C220.741 32.6587 220.731 32.7567 220.722 32.85H214.604V31.576H219.574L218.734 31.954C218.734 31.562 218.655 31.2213 218.496 30.932C218.337 30.6427 218.118 30.4187 217.838 30.26C217.558 30.092 217.231 30.008 216.858 30.008C216.485 30.008 216.153 30.092 215.864 30.26C215.584 30.4187 215.365 30.6473 215.206 30.946C215.047 31.2353 214.968 31.5807 214.968 31.982V32.318C214.968 32.7287 215.057 33.0927 215.234 33.41C215.421 33.718 215.677 33.956 216.004 34.124C216.34 34.2827 216.732 34.362 217.18 34.362C217.581 34.362 217.931 34.3013 218.23 34.18C218.538 34.0587 218.818 33.8767 219.07 33.634L220.232 34.894C219.887 35.286 219.453 35.5893 218.93 35.804C218.407 36.0093 217.805 36.112 217.124 36.112Z" fill="#252B42"/>
<path d="M100.42 64.16C99.34 64.16 98.3467 63.9867 97.44 63.64C96.5333 63.28 95.7467 62.78 95.08 62.14C94.4133 61.4867 93.8933 60.7267 93.52 59.86C93.1467 58.9933 92.96 58.04 92.96 57C92.96 55.96 93.1467 55.0067 93.52 54.14C93.8933 53.2733 94.4133 52.52 95.08 51.88C95.76 51.2267 96.5533 50.7267 97.46 50.38C98.3667 50.02 99.3667 49.84 100.46 49.84C101.567 49.84 102.58 50.02 103.5 50.38C104.42 50.74 105.2 51.28 105.84 52L104.6 53.24C104.027 52.68 103.4 52.2733 102.72 52.02C102.053 51.7533 101.327 51.62 100.54 51.62C99.74 51.62 98.9933 51.7533 98.3 52.02C97.62 52.2867 97.0267 52.66 96.52 53.14C96.0267 53.62 95.64 54.1933 95.36 54.86C95.0933 55.5133 94.96 56.2267 94.96 57C94.96 57.76 95.0933 58.4733 95.36 59.14C95.64 59.7933 96.0267 60.3667 96.52 60.86C97.0267 61.34 97.62 61.7133 98.3 61.98C98.98 62.2467 99.72 62.38 100.52 62.38C101.267 62.38 101.98 62.2667 102.66 62.04C103.353 61.8 103.993 61.4067 104.58 60.86L105.72 62.38C105.027 62.9667 104.213 63.4133 103.28 63.72C102.36 64.0133 101.407 64.16 100.42 64.16ZM103.8 62.12V56.92H105.72V62.38L103.8 62.12ZM114.009 64.12C112.943 64.12 111.996 63.8867 111.169 63.42C110.343 62.9533 109.689 62.3133 109.209 61.5C108.729 60.6733 108.489 59.74 108.489 58.7C108.489 57.6467 108.729 56.7133 109.209 55.9C109.689 55.0867 110.343 54.4533 111.169 54C111.996 53.5333 112.943 53.3 114.009 53.3C115.063 53.3 116.003 53.5333 116.829 54C117.669 54.4533 118.323 55.0867 118.789 55.9C119.269 56.7 119.509 57.6333 119.509 58.7C119.509 59.7533 119.269 60.6867 118.789 61.5C118.323 62.3133 117.669 62.9533 116.829 63.42C116.003 63.8867 115.063 64.12 114.009 64.12ZM114.009 62.44C114.689 62.44 115.296 62.2867 115.829 61.98C116.376 61.6733 116.803 61.24 117.109 60.68C117.416 60.1067 117.569 59.4467 117.569 58.7C117.569 57.94 117.416 57.2867 117.109 56.74C116.803 56.18 116.376 55.7467 115.829 55.44C115.296 55.1333 114.689 54.98 114.009 54.98C113.329 54.98 112.723 55.1333 112.189 55.44C111.656 55.7467 111.229 56.18 110.909 56.74C110.589 57.2867 110.429 57.94 110.429 58.7C110.429 59.4467 110.589 60.1067 110.909 60.68C111.229 61.24 111.656 61.6733 112.189 61.98C112.723 62.2867 113.329 62.44 114.009 62.44ZM126.905 64.12C125.838 64.12 124.891 63.8867 124.065 63.42C123.238 62.9533 122.585 62.3133 122.105 61.5C121.625 60.6733 121.385 59.74 121.385 58.7C121.385 57.6467 121.625 56.7133 122.105 55.9C122.585 55.0867 123.238 54.4533 124.065 54C124.891 53.5333 125.838 53.3 126.905 53.3C127.958 53.3 128.898 53.5333 129.725 54C130.565 54.4533 131.218 55.0867 131.685 55.9C132.165 56.7 132.405 57.6333 132.405 58.7C132.405 59.7533 132.165 60.6867 131.685 61.5C131.218 62.3133 130.565 62.9533 129.725 63.42C128.898 63.8867 127.958 64.12 126.905 64.12ZM126.905 62.44C127.585 62.44 128.191 62.2867 128.725 61.98C129.271 61.6733 129.698 61.24 130.005 60.68C130.311 60.1067 130.465 59.4467 130.465 58.7C130.465 57.94 130.311 57.2867 130.005 56.74C129.698 56.18 129.271 55.7467 128.725 55.44C128.191 55.1333 127.585 54.98 126.905 54.98C126.225 54.98 125.618 55.1333 125.085 55.44C124.551 55.7467 124.125 56.18 123.805 56.74C123.485 57.2867 123.325 57.94 123.325 58.7C123.325 59.4467 123.485 60.1067 123.805 60.68C124.125 61.24 124.551 61.6733 125.085 61.98C125.618 62.2867 126.225 62.44 126.905 62.44ZM139.9 68C138.927 68 137.98 67.86 137.06 67.58C136.153 67.3133 135.413 66.9267 134.84 66.42L135.76 64.94C136.253 65.3667 136.86 65.7 137.58 65.94C138.3 66.1933 139.053 66.32 139.84 66.32C141.093 66.32 142.013 66.0267 142.6 65.44C143.187 64.8533 143.48 63.96 143.48 62.76V60.52L143.68 58.42L143.58 56.3V53.4H145.4V62.56C145.4 64.4267 144.933 65.8 144 66.68C143.067 67.56 141.7 68 139.9 68ZM139.66 63.56C138.633 63.56 137.713 63.3467 136.9 62.92C136.1 62.48 135.46 61.8733 134.98 61.1C134.513 60.3267 134.28 59.4333 134.28 58.42C134.28 57.3933 134.513 56.5 134.98 55.74C135.46 54.9667 136.1 54.3667 136.9 53.94C137.713 53.5133 138.633 53.3 139.66 53.3C140.567 53.3 141.393 53.4867 142.14 53.86C142.887 54.22 143.48 54.78 143.92 55.54C144.373 56.3 144.6 57.26 144.6 58.42C144.6 59.5667 144.373 60.52 143.92 61.28C143.48 62.04 142.887 62.6133 142.14 63C141.393 63.3733 140.567 63.56 139.66 63.56ZM139.88 61.88C140.587 61.88 141.213 61.7333 141.76 61.44C142.307 61.1467 142.733 60.74 143.04 60.22C143.36 59.7 143.52 59.1 143.52 58.42C143.52 57.74 143.36 57.14 143.04 56.62C142.733 56.1 142.307 55.7 141.76 55.42C141.213 55.1267 140.587 54.98 139.88 54.98C139.173 54.98 138.54 55.1267 137.98 55.42C137.433 55.7 137 56.1 136.68 56.62C136.373 57.14 136.22 57.74 136.22 58.42C136.22 59.1 136.373 59.7 136.68 60.22C137 60.74 137.433 61.1467 137.98 61.44C138.54 61.7333 139.173 61.88 139.88 61.88ZM149.268 64V49.16H151.188V64H149.268ZM159.774 64.12C158.641 64.12 157.641 63.8867 156.774 63.42C155.921 62.9533 155.254 62.3133 154.774 61.5C154.308 60.6867 154.074 59.7533 154.074 58.7C154.074 57.6467 154.301 56.7133 154.754 55.9C155.221 55.0867 155.854 54.4533 156.654 54C157.468 53.5333 158.381 53.3 159.394 53.3C160.421 53.3 161.328 53.5267 162.114 53.98C162.901 54.4333 163.514 55.0733 163.954 55.9C164.408 56.7133 164.634 57.6667 164.634 58.76C164.634 58.84 164.628 58.9333 164.614 59.04C164.614 59.1467 164.608 59.2467 164.594 59.34H155.574V57.96H163.594L162.814 58.44C162.828 57.76 162.688 57.1533 162.394 56.62C162.101 56.0867 161.694 55.6733 161.174 55.38C160.668 55.0733 160.074 54.92 159.394 54.92C158.728 54.92 158.134 55.0733 157.614 55.38C157.094 55.6733 156.688 56.0933 156.394 56.64C156.101 57.1733 155.954 57.7867 155.954 58.48V58.8C155.954 59.5067 156.114 60.14 156.434 60.7C156.768 61.2467 157.228 61.6733 157.814 61.98C158.401 62.2867 159.074 62.44 159.834 62.44C160.461 62.44 161.028 62.3333 161.534 62.12C162.054 61.9067 162.508 61.5867 162.894 61.16L163.954 62.4C163.474 62.96 162.874 63.3867 162.154 63.68C161.448 63.9733 160.654 64.12 159.774 64.12ZM173.352 64V50H178.812C180.038 50 181.085 50.1933 181.952 50.58C182.818 50.9667 183.485 51.5267 183.952 52.26C184.418 52.9933 184.652 53.8667 184.652 54.88C184.652 55.8933 184.418 56.7667 183.952 57.5C183.485 58.22 182.818 58.78 181.952 59.18C181.085 59.5667 180.038 59.76 178.812 59.76H174.452L175.352 58.82V64H173.352ZM175.352 59.02L174.452 58.02H178.752C180.032 58.02 180.998 57.7467 181.652 57.2C182.318 56.6533 182.652 55.88 182.652 54.88C182.652 53.88 182.318 53.1067 181.652 52.56C180.998 52.0133 180.032 51.74 178.752 51.74H174.452L175.352 50.74V59.02ZM187.705 64V49.16H189.625V64H187.705ZM200.071 64V61.76L199.971 61.34V57.52C199.971 56.7067 199.731 56.08 199.251 55.64C198.784 55.1867 198.078 54.96 197.131 54.96C196.504 54.96 195.891 55.0667 195.291 55.28C194.691 55.48 194.184 55.7533 193.771 56.1L192.971 54.66C193.518 54.22 194.171 53.8867 194.931 53.66C195.704 53.42 196.511 53.3 197.351 53.3C198.804 53.3 199.924 53.6533 200.711 54.36C201.498 55.0667 201.891 56.1467 201.891 57.6V64H200.071ZM196.591 64.12C195.804 64.12 195.111 63.9867 194.511 63.72C193.924 63.4533 193.471 63.0867 193.151 62.62C192.831 62.14 192.671 61.6 192.671 61C192.671 60.4267 192.804 59.9067 193.071 59.44C193.351 58.9733 193.798 58.6 194.411 58.32C195.038 58.04 195.878 57.9 196.931 57.9H200.291V59.28H197.011C196.051 59.28 195.404 59.44 195.071 59.76C194.738 60.08 194.571 60.4667 194.571 60.92C194.571 61.44 194.778 61.86 195.191 62.18C195.604 62.4867 196.178 62.64 196.911 62.64C197.631 62.64 198.258 62.48 198.791 62.16C199.338 61.84 199.731 61.3733 199.971 60.76L200.351 62.08C200.098 62.7067 199.651 63.2067 199.011 63.58C198.371 63.94 197.564 64.12 196.591 64.12ZM205.909 68C205.402 68 204.909 67.9133 204.429 67.74C203.949 67.58 203.536 67.34 203.189 67.02L204.009 65.58C204.276 65.8333 204.569 66.0267 204.889 66.16C205.209 66.2933 205.549 66.36 205.909 66.36C206.376 66.36 206.762 66.24 207.069 66C207.376 65.76 207.662 65.3333 207.929 64.72L208.589 63.26L208.789 63.02L212.949 53.4H214.829L209.689 65.06C209.382 65.8067 209.036 66.3933 208.649 66.82C208.276 67.2467 207.862 67.5467 207.409 67.72C206.956 67.9067 206.456 68 205.909 68ZM208.429 64.34L203.589 53.4H205.589L209.709 62.84L208.429 64.34Z" fill="#252B42"/>
<rect x="4.5" y="2.5" width="249" height="87" rx="9.5" stroke="#BDBDBD"/>
</g>
<defs>
<filter id="filter0_d_242_2594" x="0" y="0" width="258" height="96" filterUnits="userSpaceOnUse" color-interpolation-filters="sRGB">
<feFlood flood-opacity="0" result="BackgroundImageFix"/>
<feColorMatrix in="SourceAlpha" type="matrix" values="0 0 0 0 0 0 0 0 0 0 0 0 0 0 0 0 0 0 127 0" result="hardAlpha"/>
<feOffset dy="2"/>
<feGaussianBlur stdDeviation="2"/>
<feColorMatrix type="matrix" values="0 0 0 0 0 0 0 0 0 0 0 0 0 0 0 0 0 0 0.1 0"/>
<feBlend mode="normal" in2="BackgroundImageFix" result="effect1_dropShadow_242_2594"/>
<feBlend mode="normal" in="SourceGraphic" in2="effect1_dropShadow_242_2594" result="shape"/>
</filter>
<clipPath id="clip0_242_2594">
<rect width="35" height="38.0001" fill="white" transform="translate(32 27)"/>
</clipPath>
</defs>
</svg>
