<svg width="88" height="88" viewBox="0 0 88 88" fill="none" xmlns="http://www.w3.org/2000/svg">
<path d="M44.0007 80.6663C38.9284 80.6663 34.1618 79.7032 29.7007 77.777C25.2395 75.8508 21.359 73.2389 18.059 69.9413C14.759 66.6413 12.1471 62.7608 10.2233 58.2997C8.29954 53.8386 7.33643 49.0719 7.33398 43.9997C7.33398 38.9275 8.2971 34.1608 10.2233 29.6997C12.1495 25.2386 14.7614 21.358 18.059 18.058C21.359 14.758 25.2395 12.1461 29.7007 10.2223C34.1618 8.29856 38.9284 7.33545 44.0007 7.33301C49.0729 7.33301 53.8395 8.29612 58.3007 10.2223C62.7618 12.1486 66.6423 14.7605 69.9423 18.058C73.2423 21.358 75.8554 25.2386 77.7816 29.6997C79.7079 34.1608 80.6698 38.9275 80.6673 43.9997C80.6673 49.0719 79.7042 53.8386 77.778 58.2997C75.8518 62.7608 73.2399 66.6413 69.9423 69.9413C66.6423 73.2413 62.7618 75.8545 58.3007 77.7807C53.8395 79.7069 49.0729 80.6688 44.0007 80.6663ZM44.734 47.6663L41.434 50.9663C40.7618 51.6386 40.4257 52.4941 40.4257 53.533C40.4257 54.5719 40.7618 55.4275 41.434 56.0997C42.1062 56.7719 42.9618 57.108 44.0007 57.108C45.0395 57.108 45.8951 56.7719 46.5673 56.0997L56.1007 46.5663C56.834 45.833 57.2007 44.9775 57.2007 43.9997C57.2007 43.0219 56.834 42.1663 56.1007 41.433L46.5673 31.8997C45.8951 31.2275 45.0395 30.8913 44.0007 30.8913C42.9618 30.8913 42.1062 31.2275 41.434 31.8997C40.7618 32.5719 40.4257 33.4275 40.4257 34.4663C40.4257 35.5052 40.7618 36.3608 41.434 37.033L44.734 40.333H33.0007C31.9618 40.333 31.0903 40.685 30.3863 41.389C29.6823 42.093 29.3315 42.9632 29.334 43.9997C29.334 45.0386 29.686 45.91 30.39 46.614C31.094 47.318 31.9642 47.6688 33.0007 47.6663H44.734Z" fill="white"/>
</svg>
