<svg width="97" height="97" viewBox="0 0 97 97" fill="none" xmlns="http://www.w3.org/2000/svg">
<path d="M48.5007 88.9168C42.9097 88.9168 37.6555 87.8552 32.7382 85.732C27.8208 83.6088 23.5434 80.7298 19.9059 77.095C16.2684 73.4575 13.3893 69.18 11.2688 64.2627C9.14829 59.3453 8.08668 54.0911 8.08398 48.5002C8.08398 42.9092 9.1456 37.655 11.2688 32.7377C13.392 27.8203 16.2711 23.5429 19.9059 19.9054C23.5434 16.2679 27.8208 13.3889 32.7382 11.2683C37.6555 9.1478 42.9097 8.08619 48.5007 8.0835C54.0916 8.0835 59.3458 9.14511 64.2632 11.2683C69.1805 13.3916 73.458 16.2706 77.0955 19.9054C80.7329 23.5429 83.6133 27.8203 85.7365 32.7377C87.8597 37.655 88.92 42.9092 88.9173 48.5002C88.9173 54.0911 87.8557 59.3453 85.7325 64.2627C83.6093 69.18 80.7303 73.4575 77.0955 77.095C73.458 80.7325 69.1805 83.6128 64.2632 85.736C59.3458 87.8593 54.0916 88.9195 48.5007 88.9168ZM49.309 52.5418L45.6715 56.1793C44.9305 56.9203 44.56 57.8634 44.56 59.0085C44.56 60.1536 44.9305 61.0967 45.6715 61.8377C46.4125 62.5786 47.3555 62.9491 48.5007 62.9491C49.6458 62.9491 50.5888 62.5786 51.3298 61.8377L61.8382 51.3293C62.6465 50.521 63.0507 49.5779 63.0507 48.5002C63.0507 47.4224 62.6465 46.4793 61.8382 45.671L51.3298 35.1627C50.5888 34.4217 49.6458 34.0512 48.5007 34.0512C47.3555 34.0512 46.4125 34.4217 45.6715 35.1627C44.9305 35.9036 44.56 36.8467 44.56 37.9918C44.56 39.137 44.9305 40.08 45.6715 40.821L49.309 44.4585H36.3757C35.2305 44.4585 34.2699 44.8465 33.4939 45.6225C32.7179 46.3985 32.3313 47.3577 32.334 48.5002C32.334 49.6453 32.722 50.6059 33.498 51.3819C34.274 52.1579 35.2332 52.5445 36.3757 52.5418H49.309Z" fill="#FF8A00"/>
</svg>
