<svg width="307" height="307" viewBox="0 0 307 307" fill="none" xmlns="http://www.w3.org/2000/svg">
<circle cx="153.261" cy="153.27" r="86.7371" fill="#FF8A00"/>
<path d="M259.247 153.27C259.247 211.806 211.794 259.258 153.259 259.258C94.7237 259.258 47.2715 211.806 47.2715 153.27C47.2715 94.7349 94.7237 47.2827 153.259 47.2827C211.794 47.2827 259.247 94.7349 259.247 153.27ZM58.1114 153.27C58.1114 205.819 100.71 248.418 153.259 248.418C205.808 248.418 248.407 205.819 248.407 153.27C248.407 100.722 205.808 58.1226 153.259 58.1226C100.71 58.1226 58.1114 100.722 58.1114 153.27Z" fill="#FF8A00"/>
<path d="M280.925 153.271C280.925 223.778 223.768 280.936 153.261 280.936C82.7532 280.936 25.5957 223.778 25.5957 153.271C25.5957 82.7635 82.7532 25.606 153.261 25.606C223.768 25.606 280.925 82.7635 280.925 153.271ZM38.6526 153.271C38.6526 216.567 89.9644 267.879 153.261 267.879C216.557 267.879 267.869 216.567 267.869 153.271C267.869 89.9746 216.557 38.6629 153.261 38.6629C89.9644 38.6629 38.6526 89.9746 38.6526 153.271Z" fill="#FF8A00"/>
<path d="M305.258 172.224C306.707 160.603 306.819 148.853 305.591 137.206L290.011 138.849C291.114 149.305 291.014 159.853 289.713 170.286L305.258 172.224Z" fill="#FF8A00"/>
<path d="M286.175 229.403C291.996 219.241 296.632 208.444 299.993 197.225L284.986 192.73C281.969 202.801 277.807 212.494 272.581 221.617L286.175 229.403Z" fill="#FF8A00"/>
<path d="M245.626 275.463C254.969 268.401 263.471 260.29 270.965 251.291L258.927 241.266C252.199 249.345 244.567 256.626 236.179 262.966L245.626 275.463Z" fill="#FF8A00"/>
<path d="M190.414 301.871C201.776 299.03 212.774 294.896 223.194 289.549L216.042 275.611C206.687 280.411 196.814 284.123 186.614 286.673L190.414 301.871Z" fill="#FF8A00"/>
<path d="M131.188 304.847C142.777 306.534 154.522 306.887 166.192 305.898L164.869 290.288C154.393 291.176 143.849 290.859 133.445 289.344L131.188 304.847Z" fill="#FF8A00"/>
<path d="M79.4111 287.468C89.6717 293.114 100.546 297.565 111.821 300.734L116.059 285.652C105.937 282.807 96.1752 278.812 86.964 273.743L79.4111 287.468Z" fill="#FF8A00"/>
<path d="M34.5856 250.116C41.9903 259.19 50.4113 267.384 59.6834 274.539L69.2539 262.136C60.9301 255.713 53.3704 248.357 46.723 240.211L34.5856 250.116Z" fill="#FF8A00"/>
<path d="M5.84744 194.892C9.02984 206.163 13.4944 217.032 19.1535 227.285L32.8692 219.715C27.7889 210.51 23.7809 200.753 20.924 190.635L5.84744 194.892Z" fill="#FF8A00"/>
<path d="M14.5626 88.2625C9.59223 98.8671 5.85448 110.007 3.42261 121.463L18.7472 124.716C20.9304 114.431 24.2858 104.431 28.7478 94.9111L14.5626 88.2625Z" fill="#FF8A00"/>
<path d="M44.9481 44.9579C36.6668 53.2393 29.3625 62.4431 23.1785 72.3889L36.4825 80.661C42.0341 71.7323 48.5913 63.4699 56.0257 56.0355L44.9481 44.9579Z" fill="#FF8A00"/>
<path d="M86.6795 15.3207C76.1321 20.4113 66.2033 26.6948 57.0878 34.048L66.9238 46.2414C75.107 39.6402 84.0203 33.9994 93.489 29.4294L86.6795 15.3207Z" fill="#FF8A00"/>
<path d="M134.153 1.2901C122.533 2.75098 111.118 5.53972 100.134 9.60166L105.567 24.2953C115.428 20.6488 125.675 18.1453 136.107 16.8338L134.153 1.2901Z" fill="#FF8A00"/>
<path d="M188.442 4.18893C177.044 1.49894 165.374 0.125078 153.663 0.0942797L153.621 15.7603C164.135 15.7879 174.611 17.0213 184.844 19.4361L188.442 4.18893Z" fill="#FF8A00"/>
<path d="M233.343 22.6957C223.359 16.5727 212.707 11.6148 201.593 7.9193L196.65 22.785C206.627 26.1025 216.19 30.5534 225.152 36.0502L233.343 22.6957Z" fill="#FF8A00"/>
<path d="M272.994 57.7363C265.689 48.5816 257.359 40.2948 248.167 33.0384L238.46 45.335C246.712 51.8493 254.191 59.2885 260.748 67.507L272.994 57.7363Z" fill="#FF8A00"/>
<path d="M299.504 107.712C296.02 96.5301 291.266 85.7848 285.334 75.6866L271.826 83.6214C277.152 92.6868 281.42 102.333 284.547 112.371L299.504 107.712Z" fill="#FF8A00"/>
<path d="M0.690381 139.653C-0.350702 151.319 -0.0504975 163.065 1.58511 174.662L17.0976 172.474C15.6293 162.063 15.3598 151.518 16.2944 141.046L0.690381 139.653Z" fill="#FF8A00"/>
</svg>
